<svg width="200" height="68" viewBox="0 0 200 68" fill="none" xmlns="http://www.w3.org/2000/svg">
<g filter="url(#filter0_i_97_1877)">
<rect width="200" height="68" rx="10" fill="white"/>
</g>
<g filter="url(#filter1_i_97_1877)">
<rect x="2" y="2" width="196" height="64" rx="10" fill="#9800DF"/>
</g>
<rect x="2" y="2" width="34" height="64" rx="10" fill="url(#paint0_linear_97_1877)"/>
<path d="M9.89789 28.75V26.878H13.6419V40H11.5719V28.75H9.89789ZM16.4609 33.268C16.4609 31.192 16.8089 29.572 17.5049 28.408C18.2129 27.232 19.4249 26.644 21.1409 26.644C22.8569 26.644 24.0629 27.232 24.7589 28.408C25.4669 29.572 25.8209 31.192 25.8209 33.268C25.8209 35.368 25.4669 37.012 24.7589 38.2C24.0629 39.376 22.8569 39.964 21.1409 39.964C19.4249 39.964 18.2129 39.376 17.5049 38.2C16.8089 37.012 16.4609 35.368 16.4609 33.268ZM23.8049 33.268C23.8049 32.296 23.7389 31.474 23.6069 30.802C23.4869 30.13 23.2349 29.584 22.8509 29.164C22.4669 28.732 21.8969 28.516 21.1409 28.516C20.3849 28.516 19.8149 28.732 19.4309 29.164C19.0469 29.584 18.7889 30.13 18.6569 30.802C18.5369 31.474 18.4769 32.296 18.4769 33.268C18.4769 34.276 18.5369 35.122 18.6569 35.806C18.7769 36.49 19.0289 37.042 19.4129 37.462C19.8089 37.882 20.3849 38.092 21.1409 38.092C21.8969 38.092 22.4669 37.882 22.8509 37.462C23.2469 37.042 23.5049 36.49 23.6249 35.806C23.7449 35.122 23.8049 34.276 23.8049 33.268Z" fill="white"/>
<defs>
<filter id="filter0_i_97_1877" x="0" y="0" width="200" height="68" filterUnits="userSpaceOnUse" color-interpolation-filters="sRGB">
<feFlood flood-opacity="0" result="BackgroundImageFix"/>
<feBlend mode="normal" in="SourceGraphic" in2="BackgroundImageFix" result="shape"/>
<feColorMatrix in="SourceAlpha" type="matrix" values="0 0 0 0 0 0 0 0 0 0 0 0 0 0 0 0 0 0 127 0" result="hardAlpha"/>
<feOffset/>
<feGaussianBlur stdDeviation="2"/>
<feComposite in2="hardAlpha" operator="arithmetic" k2="-1" k3="1"/>
<feColorMatrix type="matrix" values="0 0 0 0 0 0 0 0 0 0 0 0 0 0 0 0 0 0 0.25 0"/>
<feBlend mode="normal" in2="shape" result="effect1_innerShadow_97_1877"/>
</filter>
<filter id="filter1_i_97_1877" x="2" y="2" width="196" height="64" filterUnits="userSpaceOnUse" color-interpolation-filters="sRGB">
<feFlood flood-opacity="0" result="BackgroundImageFix"/>
<feBlend mode="normal" in="SourceGraphic" in2="BackgroundImageFix" result="shape"/>
<feColorMatrix in="SourceAlpha" type="matrix" values="0 0 0 0 0 0 0 0 0 0 0 0 0 0 0 0 0 0 127 0" result="hardAlpha"/>
<feMorphology radius="2" operator="erode" in="SourceAlpha" result="effect1_innerShadow_97_1877"/>
<feOffset/>
<feGaussianBlur stdDeviation="5"/>
<feComposite in2="hardAlpha" operator="arithmetic" k2="-1" k3="1"/>
<feColorMatrix type="matrix" values="0 0 0 0 0 0 0 0 0 0 0 0 0 0 0 0 0 0 0.3 0"/>
<feBlend mode="normal" in2="shape" result="effect1_innerShadow_97_1877"/>
</filter>
<linearGradient id="paint0_linear_97_1877" x1="18.4848" y1="2" x2="18.4849" y2="64.8965" gradientUnits="userSpaceOnUse">
<stop stop-color="#590282"/>
<stop offset="1" stop-color="#781568" stop-opacity="0"/>
</linearGradient>
</defs>
</svg>
