<svg  preserveAspectRatio="none" viewBox="0 0 827 1230" fill="none" xmlns="http://www.w3.org/2000/svg">
<line x1="361" y1="457" x2="466" y2="457" stroke="#C9C9C9" stroke-width="6"/>
<line x1="632" y1="457" x2="737" y2="457" stroke="#C9C9C9" stroke-width="6"/>
<line x1="361" y1="517" x2="466" y2="517" stroke="#C9C9C9" stroke-width="6"/>
<line x1="632" y1="517" x2="737" y2="517" stroke="#C9C9C9" stroke-width="6"/>
<line x1="361" y1="577" x2="466" y2="577" stroke="#C9C9C9" stroke-width="6"/>
<line x1="632" y1="577" x2="737" y2="577" stroke="#C9C9C9" stroke-width="6"/>
<line x1="361" y1="637" x2="466" y2="637" stroke="#C9C9C9" stroke-width="6"/>
<line x1="632" y1="637" x2="737" y2="637" stroke="#C9C9C9" stroke-width="6"/>
<line x1="361" y1="697" x2="466" y2="697" stroke="#C9C9C9" stroke-width="6"/>
<line x1="632" y1="697" x2="737" y2="697" stroke="#C9C9C9" stroke-width="6"/>
<line x1="361" y1="757" x2="466" y2="757" stroke="#C9C9C9" stroke-width="6"/>
<line x1="632" y1="757" x2="737" y2="757" stroke="#C9C9C9" stroke-width="6"/>
<line x1="361" y1="817" x2="466" y2="817" stroke="#C9C9C9" stroke-width="6"/>
<line x1="632" y1="817" x2="737" y2="817" stroke="#C9C9C9" stroke-width="6"/>
<line x1="361" y1="877" x2="466" y2="877" stroke="#C9C9C9" stroke-width="6"/>
<line x1="632" y1="877" x2="737" y2="877" stroke="#C9C9C9" stroke-width="6"/>
<line x1="361" y1="937" x2="466" y2="937" stroke="#C9C9C9" stroke-width="6"/>
<line x1="632" y1="937" x2="737" y2="937" stroke="#C9C9C9" stroke-width="6"/>
<line x1="361" y1="997" x2="466" y2="997" stroke="#C9C9C9" stroke-width="6"/>
<line x1="632" y1="997" x2="737" y2="997" stroke="#C9C9C9" stroke-width="6"/>
<line x1="361" y1="1057" x2="466" y2="1057" stroke="#C9C9C9" stroke-width="6"/>
<line x1="632" y1="1057" x2="737" y2="1057" stroke="#C9C9C9" stroke-width="6"/>
<line x1="361" y1="1117" x2="466" y2="1117" stroke="#C9C9C9" stroke-width="6"/>
<line x1="632" y1="1117" x2="737" y2="1117" stroke="#C9C9C9" stroke-width="6"/>
<line x1="358" y1="430" x2="358" y2="1127" stroke="#834913" stroke-width="10"/>
<line x1="629" y1="430" x2="629" y2="1127" stroke="#834913" stroke-width="10"/>
<line x1="200" y1="430" x2="200" y2="1127" stroke="#834913" stroke-width="10"/>
<line x1="471" y1="430" x2="471" y2="1127" stroke="#834913" stroke-width="10"/>
<line x1="742" y1="430" x2="742" y2="1127" stroke="#834913" stroke-width="10"/>
<line x1="90" y1="457" x2="195" y2="457" stroke="url(#paint0_linear_257_3215)" stroke-width="6"/>
<line x1="90" y1="517" x2="195" y2="517" stroke="#C9C9C9" stroke-width="6"/>
<line x1="90" y1="577" x2="195" y2="577" stroke="#C9C9C9" stroke-width="6"/>
<line x1="90" y1="637" x2="195" y2="637" stroke="#C9C9C9" stroke-width="6"/>
<line x1="90" y1="697" x2="195" y2="697" stroke="#C9C9C9" stroke-width="6"/>
<line x1="90" y1="757" x2="195" y2="757" stroke="#C9C9C9" stroke-width="6"/>
<line x1="90" y1="817" x2="195" y2="817" stroke="#C9C9C9" stroke-width="6"/>
<line x1="90" y1="877" x2="195" y2="877" stroke="#C9C9C9" stroke-width="6"/>
<line x1="90" y1="937" x2="195" y2="937" stroke="#C9C9C9" stroke-width="6"/>
<line x1="90" y1="997" x2="195" y2="997" stroke="#C9C9C9" stroke-width="6"/>
<line x1="90" y1="1057" x2="195" y2="1057" stroke="#C9C9C9" stroke-width="6"/>
<line x1="90" y1="1117" x2="195" y2="1117" stroke="#C9C9C9" stroke-width="6"/>
<line x1="87" y1="430" x2="87" y2="1127" stroke="#834913" stroke-width="10"/>
<g filter="url(#filter0_d_257_3215)">
<rect x="11" y="10" width="802" height="420" rx="10" fill="#333333"/>
<rect x="14.5" y="13.5" width="795" height="413" rx="6.5" stroke="#563925" stroke-width="7"/>
</g>
<path d="M18 91L141 124.788V403.5L18 423V91Z" fill="#D9D9D9"/>
<path d="M806 91L683 124.788V402.836L806 423V91Z" fill="#D9D9D9"/>
<g filter="url(#filter1_f_257_3215)">
<path d="M683 244L683.5 401" stroke="black" stroke-width="3"/>
</g>
<rect x="141" y="125" width="542" height="278" fill="#8C8888"/>
<path d="M141 125.5L18.5 91H806L682 125.5H141Z" fill="url(#paint1_linear_257_3215)" fill-opacity="0.5"/>
<g filter="url(#filter2_f_257_3215)">
<rect x="18" y="297" width="788" height="126" fill="white" fill-opacity="0.45"/>
</g>
<g filter="url(#filter3_f_257_3215)">
<path d="M19.5 91H800.5" stroke="black" stroke-width="4"/>
</g>
<g filter="url(#filter4_d_257_3215)">
<rect x="11" y="10" width="802" height="81" fill="#112AAF"/>
</g>
<g filter="url(#filter5_f_257_3215)">
<path d="M800 96L687 126.022V287" stroke="black" stroke-width="3"/>
</g>
<g filter="url(#filter6_f_257_3215)">
<path d="M29 91L142 121.022V282" stroke="black" stroke-width="3"/>
</g>
<path d="M46 154.036C46 152.789 47.1285 151.846 48.3555 152.068L123.855 165.703C124.808 165.875 125.5 166.704 125.5 167.672V212.143C125.5 213.247 124.605 214.143 123.5 214.143H48C46.8954 214.143 46 213.247 46 212.143V154.036Z" fill="#525050"/>
<path d="M49 157.389C49 156.144 50.1258 155.201 51.3517 155.42L121.352 167.924C122.305 168.094 123 168.924 123 169.893V207.973C123 209.088 122.088 209.988 120.973 209.973L50.9731 209.032C49.8791 209.017 49 208.126 49 207.032V157.389Z" fill="black"/>
<path d="M784.5 160.394C784.5 159.147 783.372 158.204 782.145 158.425L706.645 172.061C705.692 172.233 705 173.062 705 174.029V218.5C705 219.605 705.895 220.5 707 220.5H782.5C783.605 220.5 784.5 219.605 784.5 218.5V160.394Z" fill="#525050"/>
<path d="M781.5 163.746C781.5 162.501 780.374 161.559 779.148 161.777L709.148 174.281C708.195 174.451 707.5 175.281 707.5 176.25V214.33C707.5 215.445 708.412 216.345 709.527 216.33L779.527 215.389C780.621 215.374 781.5 214.483 781.5 213.389V163.746Z" fill="#010109"/>
<g filter="url(#filter7_f_257_3215)">
<path d="M22 423L142.922 401.08M142.922 401.08V282M142.922 401.08H683.076M683.076 401.08V282M683.076 401.08L802 423" stroke="black" stroke-width="2"/>
</g>
<rect x="18" y="287" width="788" height="10" fill="url(#paint2_linear_257_3215)"/>
<g filter="url(#filter8_f_257_3215)">
<path d="M14 85V14H813V85" stroke="black" stroke-width="2"/>
</g>
<path d="M123.626 629.622C113.437 601.664 119.38 581.595 123.626 575.055L149.677 571.377L171.096 568.311C182.674 559.972 185.183 569.332 184.99 575.055L180.938 634.527C184.179 638.451 182.288 643.111 180.938 644.95H172.833C169.591 641.027 171.482 636.367 172.833 634.527L167.623 621.652C160.213 607.918 161.834 600.55 163.57 598.583C156.028 602.91 148.218 604.726 143.887 605.098C142.035 612.946 136.555 624.718 134.046 629.622C135.899 637.47 134.818 658.643 134.046 668.249V681.738C136.825 687.133 135.204 692.161 134.046 694H126.52C122.352 689.095 124.784 683.781 126.52 681.738L123.626 668.249C115.753 645.686 120.345 633.097 123.626 629.622Z" fill="#FF1515"/>
<path d="M163.57 598.583C156.028 602.91 148.218 604.726 143.887 605.098C142.035 612.946 136.555 624.718 134.046 629.622C135.899 637.47 134.818 658.643 134.046 668.249V681.738C136.825 687.133 135.204 692.161 134.046 694H126.52C122.352 689.095 124.784 683.781 126.52 681.738L123.626 668.249C115.753 645.686 120.345 633.097 123.626 629.622C113.437 601.664 119.38 581.595 123.626 575.055L149.677 571.377L171.096 568.311C182.674 559.972 185.183 569.332 184.99 575.055L180.938 634.527C184.179 638.451 182.288 643.111 180.938 644.95H172.833C169.591 641.027 171.482 636.367 172.833 634.527L167.623 621.652C160.213 607.918 161.834 600.55 163.57 598.583ZM163.57 598.583C168.462 595.777 173.241 591.914 176.885 586.704C175.341 589.342 170.517 595.411 163.57 598.583Z" stroke="black"/>
<path d="M161.225 496.386C153.116 501.138 147.751 508.118 146.083 511.015C140.285 523.37 133.319 544.452 151.839 529.933C170.36 515.414 175.074 501.519 175.116 496.386L164.479 456.899L168.483 455.029V452.28L166.606 448.98L162.852 447H154.467L151.839 450.3V453.599L155.844 456.899L157.971 469.878C160.775 481.141 161.308 492.243 161.225 496.386Z" fill="#D6572E"/>
<path d="M120.693 553.661C115.181 548.606 108.76 539.799 106.239 536.027C106.239 533.284 105.735 527.798 103.718 527.798C101.701 527.798 99.5161 515.357 98.6758 509.136L121.87 503.406C127.383 504.934 133.579 502.769 135.988 501.495L146.072 499.879L155.484 501.495L162.375 512.222V521.039V527.798C159.821 538.026 155.484 547.832 153.636 551.457L150.442 566.298C141.87 567.278 124.862 569.178 125.399 568.943C125.937 568.708 123.27 559.539 121.87 554.983C123.775 556.649 126.206 558.716 120.693 553.661Z" fill="#D6572E"/>
<path d="M90.6693 536.44C90.1354 522.501 96.2304 512.047 99.3446 508.562L107.353 536.44L99.3446 553.863H90.6693L88 544.571L90.6693 536.44Z" fill="#D6572E"/>
<path d="M124.008 573.61V565.907L152.836 563.156L156.531 570.859L124.008 573.61Z" fill="#545151" stroke="black"/>
<path d="M119.363 495.727L123.313 504.292C129.105 506.576 136.257 503.341 139.11 501.437L135.819 492.301C133.712 495.499 123.971 495.917 119.363 495.727Z" fill="#D6572E"/>
<path d="M106.586 484.17L117.87 496.947C126.897 496.947 135.791 493.463 139.109 491.72V487.655V484.17V477.782V473.136V469.07C137.782 466.941 135.127 462.101 135.127 459.778L129.153 456.293L124.507 459.778H117.87C114.108 460.358 106.586 461.752 106.586 462.682V469.07V477.782V484.17Z" fill="#340E06"/>
<path d="M140.269 470.598C131.348 474.559 113.32 476.65 105.422 477.2V473.349C118.245 472.908 132.602 468.764 138.178 466.746L140.269 470.598Z" fill="#FF1515"/>
<path d="M173.954 503.917C168.844 503.452 162.92 497.915 160.597 495.205L158.273 497.528C162.455 502.639 169.695 505.853 172.793 506.821L173.954 503.917Z" fill="#510A0A" stroke="black"/>
<path d="M102.823 545.948C100.114 541.59 92.5074 538.781 89.0427 537.922L90.076 534.803C96.5199 536.246 102.641 541.273 104.897 543.607L102.823 545.948Z" fill="#510A0A" stroke="black"/>
<path d="M90.9028 535.278C90.7092 529.277 92.1806 515.531 99.6145 508.562L122.846 503.335C125.556 505.271 132.603 507.517 139.107 501.012L146.077 499.27L154.208 501.012L158.273 497.527C159.628 499.463 164.313 504.032 172.212 506.82C170.276 510.692 165.591 518.784 162.339 520.178V528.309C160.403 535.084 156.066 548.984 154.208 550.378L152.465 562.574L122.846 566.64L119.361 552.701C115.956 549.782 109.535 543.441 106.994 538.182L104.842 543.409C101.55 540.311 94.1552 534.349 90.9028 535.278Z" fill="#FF1515"/>
<path d="M119.361 552.701L122.846 566.64L152.465 562.574L154.208 550.378C156.066 548.984 160.403 535.084 162.339 528.309V520.178C165.591 518.784 170.276 510.692 172.212 506.82C164.313 504.032 159.628 499.463 158.273 497.527L154.208 501.012L146.077 499.27L139.107 501.012C132.603 507.517 125.556 505.271 122.846 503.335L99.6145 508.562C92.1806 515.531 90.7092 529.277 90.9028 535.278C94.1552 534.349 101.55 540.311 104.842 543.409L106.994 538.182M119.361 552.701L122.846 555.605M119.361 552.701C115.956 549.782 109.535 543.441 106.994 538.182M106.003 535.278C105.074 529.702 105.229 529.47 105.422 530.051L106.003 535.278ZM106.003 535.278C106.154 536.183 106.501 537.162 106.994 538.182" stroke="black"/>
<path d="M133.302 682.246H126.914C121.803 686.428 124.397 691.732 126.333 693.862L133.883 693.281C137.136 688.17 134.851 683.795 133.302 682.246Z" fill="#261706" stroke="black"/>
<path d="M180.006 633.363H173.617C168.506 637.545 171.1 642.849 173.036 644.979L180.586 644.398C183.839 639.287 181.554 634.912 180.006 633.363Z" fill="#261706" stroke="black"/>
<g filter="url(#filter9_f_257_3215)">
<path d="M150.145 560.833L151.306 550.379L158.275 529.471V519.017L165.826 511.467" stroke="black"/>
</g>
<g filter="url(#filter10_f_257_3215)">
<path d="M108.327 529.471C107.553 532.181 109.372 540.505 122.846 552.121" stroke="#510A0A"/>
</g>
<path d="M145.527 520.692C145.3 527.697 141.551 544.766 128.37 556.994C135.782 552.559 149.59 539.089 145.527 520.692Z" fill="#510A0A" fill-opacity="0.5"/>
<g filter="url(#filter11_f_257_3215)">
<path d="M176.858 588.129C177.439 589.678 175.928 594.053 165.242 599.164" stroke="#510A0A"/>
</g>
<g filter="url(#filter12_f_257_3215)">
<path d="M165.824 611.344C168.33 612.697 174.16 612.62 177.44 601.486" stroke="#510A0A"/>
</g>
<g filter="url(#filter13_f_257_3215)">
<path d="M124.588 578.256C121.297 584.257 116.689 601.255 124.588 621.233" stroke="#510A0A"/>
</g>
<path d="M151.394 587.992C155.695 587.03 166.937 582.807 177.499 573.609C176.022 577 168.733 584.623 151.394 587.992Z" fill="#510A0A" fill-opacity="0.5"/>
<path d="M400.626 810.621C390.437 783.096 396.38 763.338 400.626 756.899L426.677 753.278L448.096 750.259C459.674 742.05 462.183 751.265 461.99 756.899L457.938 815.449C461.179 819.313 459.288 823.9 457.938 825.711H449.833C446.591 821.848 448.482 817.26 449.833 815.449L444.623 802.774C437.213 789.253 438.834 781.999 440.57 780.063C433.028 784.322 425.218 786.11 420.887 786.476C419.035 794.202 413.555 805.792 411.046 810.621C412.899 818.347 411.818 839.192 411.046 848.648V861.928C413.825 867.24 412.204 872.189 411.046 874H403.52C399.352 869.171 401.784 863.94 403.52 861.928L400.626 848.648C392.753 826.435 397.345 814.041 400.626 810.621Z" fill="#141DFF"/>
<path d="M440.57 780.063C433.028 784.322 425.218 786.11 420.887 786.476C419.035 794.202 413.555 805.792 411.046 810.621C412.899 818.347 411.818 839.192 411.046 848.648V861.928C413.825 867.24 412.204 872.189 411.046 874H403.52C399.352 869.171 401.784 863.94 403.52 861.928L400.626 848.648C392.753 826.435 397.345 814.041 400.626 810.621C390.437 783.096 396.38 763.338 400.626 756.899L426.677 753.278L448.096 750.259C459.674 742.05 462.183 751.265 461.99 756.899L457.938 815.449C461.179 819.313 459.288 823.9 457.938 825.711H449.833C446.591 821.848 448.482 817.26 449.833 815.449L444.623 802.774C437.213 789.253 438.834 781.999 440.57 780.063ZM440.57 780.063C445.462 777.3 450.241 773.497 453.885 768.368C452.341 770.965 447.517 776.939 440.57 780.063Z" stroke="black"/>
<path d="M438.225 678.386C430.116 683.138 424.751 690.118 423.083 693.015C417.285 705.37 410.319 726.452 428.839 711.933C447.36 697.414 452.074 683.519 452.116 678.386L441.479 638.899L445.483 637.029V634.28L443.606 630.98L439.852 629H431.467L428.839 632.3V635.599L432.844 638.899L434.971 651.878C437.775 663.141 438.308 674.243 438.225 678.386Z" fill="#D6572E"/>
<path d="M397.693 735.661C392.181 730.606 385.76 721.799 383.239 718.027C383.239 715.284 382.735 709.798 380.718 709.798C378.701 709.798 376.516 697.357 375.676 691.136L398.87 685.406C404.383 686.934 410.579 684.769 412.988 683.495L423.072 681.879L432.484 683.495L439.375 694.222V703.039V709.798C436.821 720.026 432.484 729.832 430.636 733.457L427.442 748.298C418.87 749.278 401.862 751.178 402.399 750.943C402.937 750.708 400.27 741.539 398.87 736.983C400.775 738.649 403.206 740.716 397.693 735.661Z" fill="#D6572E"/>
<path d="M367.669 718.44C367.135 704.501 373.23 694.047 376.345 690.562L384.353 718.44L376.345 735.863H367.669L365 726.571L367.669 718.44Z" fill="#D6572E"/>
<path d="M401.008 755.61V747.907L429.836 745.156L433.531 752.859L401.008 755.61Z" fill="#545151" stroke="black"/>
<path d="M396.363 677.727L400.313 686.292C406.105 688.576 413.257 685.341 416.11 683.437L412.819 674.301C410.712 677.499 400.971 677.917 396.363 677.727Z" fill="#D6572E"/>
<path d="M383.586 666.17L394.87 678.947C403.897 678.947 412.791 675.463 416.109 673.72V669.655V666.17V659.782V655.136V651.07C414.782 648.941 412.127 644.101 412.127 641.778L406.153 638.293L401.507 641.778H394.87C391.108 642.358 383.586 643.752 383.586 644.682V651.07V659.782V666.17Z" fill="#340E06"/>
<path d="M417.269 652.598C408.348 656.559 390.32 658.65 382.422 659.2V655.349C395.245 654.908 409.602 650.764 415.178 648.746L417.269 652.598Z" fill="#141DFF"/>
<path d="M450.954 685.917C445.844 685.452 439.92 679.915 437.597 677.205L435.273 679.528C439.455 684.639 446.695 687.853 449.793 688.821L450.954 685.917Z" fill="#0A0D51" stroke="black"/>
<path d="M379.823 727.948C377.114 723.59 369.507 720.781 366.043 719.922L367.076 716.803C373.52 718.246 379.641 723.273 381.897 725.607L379.823 727.948Z" fill="#0A0D51" stroke="black"/>
<path d="M367.903 717.278C367.709 711.277 369.181 697.531 376.615 690.562L399.846 685.335C402.556 687.271 409.603 689.517 416.107 683.012L423.077 681.27L431.208 683.012L435.273 679.527C436.628 681.463 441.313 686.032 449.212 688.82C447.276 692.692 442.591 700.784 439.339 702.178V710.309C437.403 717.084 433.066 730.984 431.208 732.378L429.465 744.574L399.846 748.64L396.361 734.701C392.956 731.782 386.535 725.441 383.994 720.182L381.842 725.409C378.55 722.311 371.155 716.349 367.903 717.278Z" fill="#141DFF"/>
<path d="M396.361 734.701L399.846 748.64L429.465 744.574L431.208 732.378C433.066 730.984 437.403 717.084 439.339 710.309V702.178C442.591 700.784 447.276 692.692 449.212 688.82C441.313 686.032 436.628 681.463 435.273 679.527L431.208 683.012L423.077 681.27L416.107 683.012C409.603 689.517 402.556 687.271 399.846 685.335L376.615 690.562C369.181 697.531 367.709 711.277 367.903 717.278C371.155 716.349 378.55 722.311 381.842 725.409L383.994 720.182M396.361 734.701L399.846 737.605M396.361 734.701C392.956 731.782 386.535 725.441 383.994 720.182M383.003 717.278C382.074 711.702 382.229 711.47 382.422 712.051L383.003 717.278ZM383.003 717.278C383.154 718.183 383.501 719.162 383.994 720.182" stroke="black"/>
<path d="M410.302 862.246H403.914C398.803 866.428 401.397 871.732 403.333 873.862L410.883 873.281C414.136 868.17 411.851 863.795 410.302 862.246Z" fill="#261706" stroke="black"/>
<path d="M458.006 815.363H451.617C446.506 819.545 449.1 824.849 451.036 826.979L458.586 826.398C461.839 821.287 459.554 816.912 458.006 815.363Z" fill="#261706" stroke="black"/>
<g filter="url(#filter14_f_257_3215)">
<path d="M427.145 742.833L428.306 732.379L435.275 711.471V701.017L442.826 693.467" stroke="black"/>
</g>
<g filter="url(#filter15_f_257_3215)">
<path d="M385.327 711.471C384.553 714.181 386.372 722.505 399.846 734.121" stroke="#0A0D51"/>
</g>
<path d="M422.527 702.692C422.3 709.697 418.551 726.766 405.37 738.994C412.782 734.559 426.59 721.089 422.527 702.692Z" fill="#0A0D51" fill-opacity="0.5"/>
<g filter="url(#filter16_f_257_3215)">
<path d="M453.858 770.129C454.439 771.678 452.928 776.053 442.242 781.164" stroke="#0A0D51"/>
</g>
<g filter="url(#filter17_f_257_3215)">
<path d="M442.824 793.344C445.33 794.697 451.16 794.62 454.44 783.486" stroke="#0A0D51"/>
</g>
<g filter="url(#filter18_f_257_3215)">
<path d="M401.588 760.256C398.297 766.257 393.689 783.255 401.588 803.233" stroke="#0A0D51"/>
</g>
<path d="M428.394 769.992C432.695 769.03 443.937 764.807 454.499 755.609C453.022 759 445.733 766.623 428.394 769.992Z" fill="#0A0D51" fill-opacity="0.5"/>
<path d="M155.374 929.621C165.563 902.096 159.62 882.338 155.374 875.899L129.323 872.278L107.904 869.259C96.3257 861.05 93.8171 870.265 94.0101 875.899L98.0624 934.449C94.8205 938.313 96.7116 942.9 98.0624 944.711H106.167C109.409 940.848 107.518 936.26 106.167 934.449L111.377 921.774C118.787 908.253 117.166 900.999 115.43 899.063C122.972 903.322 130.782 905.11 135.113 905.476C136.965 913.202 142.445 924.792 144.954 929.621C143.101 937.347 144.182 958.192 144.954 967.648V980.928C142.175 986.24 143.796 991.189 144.954 993H152.48C156.648 988.171 154.216 982.94 152.48 980.928L155.374 967.648C163.247 945.435 158.655 933.041 155.374 929.621Z" fill="#FFC600"/>
<path d="M115.43 899.063C122.972 903.322 130.782 905.11 135.113 905.476C136.965 913.202 142.445 924.792 144.954 929.621C143.101 937.347 144.182 958.192 144.954 967.648V980.928C142.175 986.24 143.796 991.189 144.954 993H152.48C156.648 988.171 154.216 982.94 152.48 980.928L155.374 967.648C163.247 945.435 158.655 933.041 155.374 929.621C165.563 902.096 159.62 882.338 155.374 875.899L129.323 872.278L107.904 869.259C96.3257 861.05 93.8171 870.265 94.0101 875.899L98.0624 934.449C94.8205 938.313 96.7116 942.9 98.0624 944.711H106.167C109.409 940.848 107.518 936.26 106.167 934.449L111.377 921.774C118.787 908.253 117.166 900.999 115.43 899.063ZM115.43 899.063C110.538 896.3 105.759 892.497 102.115 887.368C103.659 889.965 108.483 895.939 115.43 899.063Z" stroke="black"/>
<path d="M117.775 797.386C125.884 802.138 131.249 809.118 132.917 812.015C138.715 824.37 145.681 845.452 127.161 830.933C108.64 816.414 103.926 802.519 103.884 797.386L114.521 757.899L110.517 756.029V753.28L112.394 749.98L116.148 748H124.533L127.161 751.3V754.599L123.156 757.899L121.029 770.878C118.225 782.141 117.692 793.243 117.775 797.386Z" fill="#D6572E"/>
<path d="M158.307 854.661C163.819 849.606 170.24 840.799 172.761 837.027C172.761 834.284 173.265 828.798 175.282 828.798C177.299 828.798 179.484 816.357 180.324 810.136L157.13 804.406C151.617 805.934 145.421 803.769 143.012 802.495L132.928 800.879L123.516 802.495L116.625 813.222V822.039V828.798C119.179 839.026 123.516 848.832 125.364 852.457L128.558 867.298C137.13 868.278 154.138 870.178 153.601 869.943C153.063 869.708 155.73 860.539 157.13 855.983C155.225 857.649 152.794 859.716 158.307 854.661Z" fill="#D6572E"/>
<path d="M188.331 837.44C188.865 823.501 182.77 813.047 179.655 809.562L171.647 837.44L179.655 854.863H188.331L191 845.571L188.331 837.44Z" fill="#D6572E"/>
<path d="M154.992 874.61V866.907L126.164 864.156L122.469 871.859L154.992 874.61Z" fill="#545151" stroke="black"/>
<path d="M159.637 796.727L155.687 805.292C149.895 807.576 142.743 804.341 139.89 802.437L143.181 793.301C145.288 796.499 155.029 796.917 159.637 796.727Z" fill="#D6572E"/>
<path d="M172.414 785.17L161.13 797.947C152.103 797.947 143.209 794.463 139.891 792.72V788.655V785.17V778.782V774.136V770.07C141.218 767.941 143.873 763.101 143.873 760.778L149.847 757.293L154.493 760.778H161.13C164.892 761.358 172.414 762.752 172.414 763.682V770.07V778.782V785.17Z" fill="#340E06"/>
<path d="M138.731 771.598C147.652 775.559 165.68 777.65 173.578 778.2V774.349C160.755 773.908 146.398 769.764 140.822 767.746L138.731 771.598Z" fill="#FFC600"/>
<path d="M105.046 804.917C110.156 804.452 116.08 798.915 118.403 796.205L120.727 798.528C116.545 803.639 109.305 806.853 106.207 807.821L105.046 804.917Z" fill="#FFC600" stroke="black"/>
<path d="M176.177 846.948C178.886 842.59 186.493 839.781 189.957 838.922L188.924 835.803C182.48 837.246 176.359 842.273 174.103 844.607L176.177 846.948Z" fill="#FFC600" stroke="black"/>
<path d="M188.097 836.278C188.291 830.277 186.819 816.531 179.385 809.562L156.154 804.335C153.444 806.271 146.397 808.517 139.893 802.012L132.923 800.27L124.792 802.012L120.727 798.527C119.372 800.463 114.687 805.032 106.788 807.82C108.724 811.692 113.409 819.784 116.661 821.178V829.309C118.597 836.084 122.934 849.984 124.792 851.378L126.535 863.574L156.154 867.64L159.639 853.701C163.044 850.782 169.465 844.441 172.006 839.182L174.158 844.409C177.45 841.311 184.845 835.349 188.097 836.278Z" fill="#FFC600"/>
<path d="M159.639 853.701L156.154 867.64L126.535 863.574L124.792 851.378C122.934 849.984 118.597 836.084 116.661 829.309V821.178C113.409 819.784 108.724 811.692 106.788 807.82C114.687 805.032 119.372 800.463 120.727 798.527L124.792 802.012L132.923 800.27L139.893 802.012C146.397 808.517 153.444 806.271 156.154 804.335L179.385 809.562C186.819 816.531 188.291 830.277 188.097 836.278C184.845 835.349 177.45 841.311 174.158 844.409L172.006 839.182M159.639 853.701L156.154 856.605M159.639 853.701C163.044 850.782 169.465 844.441 172.006 839.182M172.997 836.278C173.926 830.702 173.771 830.47 173.578 831.051L172.997 836.278ZM172.997 836.278C172.846 837.183 172.499 838.162 172.006 839.182" stroke="black"/>
<path d="M145.698 981.246H152.086C157.197 985.428 154.603 990.732 152.667 992.862L145.117 992.281C141.864 987.17 144.149 982.795 145.698 981.246Z" fill="#261706" stroke="black"/>
<path d="M98.9945 933.363H105.383C110.494 937.545 107.9 942.849 105.964 944.979L98.4137 944.398C95.1614 939.287 97.4457 934.912 98.9945 933.363Z" fill="#261706" stroke="black"/>
<g filter="url(#filter19_f_257_3215)">
<path d="M128.855 861.833L127.694 851.379L120.725 830.471V820.017L113.174 812.467" stroke="black"/>
</g>
<g filter="url(#filter20_f_257_3215)">
<path d="M170.673 830.471C171.447 833.181 169.628 841.505 156.154 853.121" stroke="#FFC600"/>
</g>
<path d="M133.473 821.692C133.7 828.697 137.449 845.766 150.63 857.994C143.218 853.559 129.41 840.089 133.473 821.692Z" fill="#6A5509" fill-opacity="0.5"/>
<g filter="url(#filter21_f_257_3215)">
<path d="M102.142 889.129C101.561 890.678 103.072 895.053 113.758 900.164" stroke="#FFC600"/>
</g>
<g filter="url(#filter22_f_257_3215)">
<path d="M113.176 912.344C110.67 913.697 104.84 913.62 101.56 902.486" stroke="#FFC600"/>
</g>
<g filter="url(#filter23_f_257_3215)">
<path d="M154.412 879.256C157.703 885.257 162.311 902.255 154.412 922.233" stroke="#FFC600"/>
</g>
<path d="M127.606 888.992C123.305 888.03 112.063 883.807 101.501 874.609C102.978 878 110.267 885.623 127.606 888.992Z" fill="#6A5509" fill-opacity="0.5"/>
<path d="M703.571 1167.88C713.793 1141.4 707.83 1122.39 703.571 1116.19L677.436 1112.71L655.947 1109.8C644.332 1101.9 641.815 1110.77 642.009 1116.19L646.074 1172.53C642.822 1176.24 644.719 1180.66 646.074 1182.4H654.205C657.457 1178.68 655.56 1174.27 654.205 1172.53L659.432 1160.33C666.866 1147.32 665.24 1140.34 663.497 1138.48C671.064 1142.58 678.899 1144.3 683.244 1144.65C685.102 1152.08 690.6 1163.23 693.117 1167.88C691.258 1175.31 692.343 1195.37 693.117 1204.47V1217.25C690.329 1222.36 691.955 1227.12 693.117 1228.86H700.667C704.849 1224.22 702.409 1219.18 700.667 1217.25L703.571 1204.47C711.469 1183.1 706.862 1171.17 703.571 1167.88Z" fill="#10FF8C"/>
<path d="M663.497 1138.48C671.064 1142.58 678.899 1144.3 683.244 1144.65C685.102 1152.08 690.6 1163.23 693.117 1167.88C691.258 1175.31 692.343 1195.37 693.117 1204.47V1217.25C690.329 1222.36 691.955 1227.12 693.117 1228.86H700.667C704.849 1224.22 702.409 1219.18 700.667 1217.25L703.571 1204.47C711.469 1183.1 706.862 1171.17 703.571 1167.88C713.793 1141.4 707.83 1122.39 703.571 1116.19L677.436 1112.71L655.947 1109.8C644.332 1101.9 641.815 1110.77 642.009 1116.19L646.074 1172.53C642.822 1176.24 644.719 1180.66 646.074 1182.4H654.205C657.457 1178.68 655.56 1174.27 654.205 1172.53L659.432 1160.33C666.866 1147.32 665.24 1140.34 663.497 1138.48ZM663.497 1138.48C658.59 1135.82 653.795 1132.16 650.139 1127.23C651.688 1129.72 656.528 1135.47 663.497 1138.48Z" stroke="black"/>
<path d="M665.775 1038.39C673.884 1043.14 679.249 1050.12 680.917 1053.01C686.715 1065.37 693.681 1086.45 675.161 1071.93C656.64 1057.41 651.926 1043.52 651.884 1038.39L662.521 998.899L658.517 997.029V994.28L660.394 990.98L664.148 989H672.533L675.161 992.3V995.599L671.156 998.899L669.029 1011.88C666.225 1023.14 665.692 1034.24 665.775 1038.39Z" fill="#D6572E"/>
<path d="M706.307 1095.66C711.819 1090.61 718.24 1081.8 720.761 1078.03C720.761 1075.28 721.265 1069.8 723.282 1069.8C725.299 1069.8 727.484 1057.36 728.324 1051.14L705.13 1045.41C699.617 1046.93 693.421 1044.77 691.012 1043.5L680.928 1041.88L671.516 1043.5L664.625 1054.22V1063.04V1069.8C667.179 1080.03 671.516 1089.83 673.364 1093.46L676.558 1108.3C685.13 1109.28 702.138 1111.18 701.601 1110.94C701.063 1110.71 703.73 1101.54 705.13 1096.98C703.225 1098.65 700.794 1100.72 706.307 1095.66Z" fill="#D6572E"/>
<path d="M736.331 1078.44C736.865 1064.5 730.77 1054.05 727.655 1050.56L719.647 1078.44L727.655 1095.86H736.331L739 1086.57L736.331 1078.44Z" fill="#D6572E"/>
<path d="M702.992 1115.61V1107.91L674.164 1105.16L670.469 1112.86L702.992 1115.61Z" fill="#545151" stroke="black"/>
<path d="M707.637 1037.73L703.687 1046.29C697.895 1048.58 690.743 1045.34 687.89 1043.44L691.181 1034.3C693.288 1037.5 703.029 1037.92 707.637 1037.73Z" fill="#D6572E"/>
<path d="M720.414 1026.17L709.13 1038.95C700.103 1038.95 691.209 1035.46 687.891 1033.72V1029.65V1026.17V1019.78V1015.14V1011.07C689.218 1008.94 691.873 1004.1 691.873 1001.78L697.847 998.293L702.493 1001.78H709.13C712.892 1002.36 720.414 1003.75 720.414 1004.68V1011.07V1019.78V1026.17Z" fill="#340E06"/>
<path d="M686.731 1012.6C695.652 1016.56 713.68 1018.65 721.578 1019.2V1015.35C708.755 1014.91 694.398 1010.76 688.822 1008.75L686.731 1012.6Z" fill="#10FF8C"/>
<path d="M653.046 1045.92C658.156 1045.45 664.08 1039.92 666.403 1037.21L668.727 1039.53C664.545 1044.64 657.305 1047.85 654.207 1048.82L653.046 1045.92Z" fill="#10FF8C" stroke="black"/>
<path d="M724.177 1087.95C726.886 1083.59 734.493 1080.78 737.957 1079.92L736.924 1076.8C730.48 1078.25 724.359 1083.27 722.103 1085.61L724.177 1087.95Z" fill="#10FF8C" stroke="black"/>
<path d="M736.097 1077.28C736.291 1071.28 734.819 1057.53 727.385 1050.56L704.154 1045.34C701.444 1047.27 694.397 1049.52 687.893 1043.01L680.923 1041.27L672.792 1043.01L668.727 1039.53C667.372 1041.46 662.687 1046.03 654.788 1048.82C656.724 1052.69 661.409 1060.78 664.661 1062.18V1070.31C666.597 1077.08 670.934 1090.98 672.792 1092.38L674.535 1104.57L704.154 1108.64L707.639 1094.7C711.044 1091.78 717.465 1085.44 720.006 1080.18L722.158 1085.41C725.45 1082.31 732.845 1076.35 736.097 1077.28Z" fill="#10FF8C"/>
<path d="M707.639 1094.7L704.154 1108.64L674.535 1104.57L672.792 1092.38C670.934 1090.98 666.597 1077.08 664.661 1070.31V1062.18C661.409 1060.78 656.724 1052.69 654.788 1048.82C662.687 1046.03 667.372 1041.46 668.727 1039.53L672.792 1043.01L680.923 1041.27L687.893 1043.01C694.397 1049.52 701.444 1047.27 704.154 1045.34L727.385 1050.56C734.819 1057.53 736.291 1071.28 736.097 1077.28C732.845 1076.35 725.45 1082.31 722.158 1085.41L720.006 1080.18M707.639 1094.7L704.154 1097.61M707.639 1094.7C711.044 1091.78 717.465 1085.44 720.006 1080.18M720.997 1077.28C721.926 1071.7 721.771 1071.47 721.578 1072.05L720.997 1077.28ZM720.997 1077.28C720.846 1078.18 720.499 1079.16 720.006 1080.18" stroke="black"/>
<path d="M693.698 1217.25H700.086C705.197 1221.43 702.603 1226.73 700.667 1228.86L693.117 1228.28C689.864 1223.17 692.149 1218.79 693.698 1217.25Z" fill="#261706" stroke="black"/>
<path d="M645.994 1171.36H652.383C657.494 1175.54 654.9 1180.85 652.964 1182.98L645.414 1182.4C642.161 1177.29 644.446 1172.91 645.994 1171.36Z" fill="#261706" stroke="black"/>
<g filter="url(#filter24_f_257_3215)">
<path d="M676.855 1102.83L675.694 1092.38L668.725 1071.47V1061.02L661.174 1053.47" stroke="black"/>
</g>
<g filter="url(#filter25_f_257_3215)">
<path d="M718.673 1071.47C719.447 1074.18 717.628 1082.51 704.154 1094.12" stroke="#10FF8C"/>
</g>
<path d="M681.473 1062.69C681.7 1069.7 685.449 1086.77 698.63 1098.99C691.218 1094.56 677.41 1081.09 681.473 1062.69Z" fill="#0A5137" fill-opacity="0.5"/>
<g filter="url(#filter26_f_257_3215)">
<path d="M650.142 1130.13C649.561 1131.68 651.072 1136.05 661.758 1141.16" stroke="#10FF8C"/>
</g>
<g filter="url(#filter27_f_257_3215)">
<path d="M661.176 1153.34C658.67 1154.7 652.84 1154.62 649.56 1143.49" stroke="#10FF8C"/>
</g>
<g filter="url(#filter28_f_257_3215)">
<path d="M702.412 1120.26C705.703 1126.26 710.311 1143.25 702.412 1163.23" stroke="#10FF8C"/>
</g>
<path d="M675.606 1129.99C671.305 1129.03 660.063 1124.81 649.501 1115.61C650.978 1119 658.267 1126.62 675.606 1129.99Z" fill="#0A5137" fill-opacity="0.5"/>
<path d="M718.374 691.122C728.563 663.38 722.62 643.466 718.374 636.977L692.323 633.327L670.904 630.285C659.326 622.011 656.817 631.299 657.01 636.977L661.062 695.988C657.821 699.882 659.712 704.506 661.062 706.331H669.167C672.409 702.437 670.518 697.814 669.167 695.988L674.377 683.213C681.787 669.585 680.166 662.275 678.43 660.323C685.972 664.616 693.782 666.418 698.113 666.787C699.965 674.574 705.445 686.255 707.954 691.122C706.101 698.909 707.182 719.918 707.954 729.449V742.833C705.175 748.186 706.796 753.175 707.954 755H715.48C719.648 750.133 717.216 744.861 715.48 742.833L718.374 729.449C726.247 707.061 721.655 694.569 718.374 691.122Z" fill="#26F814"/>
<path d="M678.43 660.323C685.972 664.616 693.782 666.418 698.113 666.787C699.965 674.574 705.445 686.255 707.954 691.122C706.101 698.909 707.182 719.918 707.954 729.449V742.833C705.175 748.186 706.796 753.175 707.954 755H715.48C719.648 750.133 717.216 744.861 715.48 742.833L718.374 729.449C726.247 707.061 721.655 694.569 718.374 691.122C728.563 663.38 722.62 643.466 718.374 636.977L692.323 633.327L670.904 630.285C659.326 622.011 656.817 631.299 657.01 636.977L661.062 695.988C657.821 699.882 659.712 704.506 661.062 706.331H669.167C672.409 702.437 670.518 697.814 669.167 695.988L674.377 683.213C681.787 669.585 680.166 662.275 678.43 660.323ZM678.43 660.323C673.538 657.538 668.759 653.706 665.115 648.536C666.659 651.153 671.483 657.175 678.43 660.323Z" stroke="black"/>
<path d="M680.775 558.386C688.884 563.138 694.249 570.118 695.917 573.015C701.715 585.37 708.681 606.452 690.161 591.933C671.64 577.414 666.926 563.519 666.884 558.386L677.521 518.899L673.517 517.029V514.28L675.394 510.98L679.148 509H687.533L690.161 512.3V515.599L686.156 518.899L684.029 531.878C681.225 543.141 680.692 554.243 680.775 558.386Z" fill="#D6572E"/>
<path d="M721.307 615.661C726.819 610.606 733.24 601.799 735.761 598.027C735.761 595.284 736.265 589.798 738.282 589.798C740.299 589.798 742.484 577.357 743.324 571.136L720.13 565.406C714.617 566.934 708.421 564.769 706.012 563.495L695.928 561.879L686.516 563.495L679.625 574.222V583.039V589.798C682.179 600.026 686.516 609.832 688.364 613.457L691.558 628.298C700.13 629.278 717.138 631.178 716.601 630.943C716.063 630.708 718.73 621.539 720.13 616.983C718.225 618.649 715.794 620.716 721.307 615.661Z" fill="#D6572E"/>
<path d="M751.331 598.44C751.865 584.501 745.77 574.047 742.655 570.562L734.647 598.44L742.655 615.863H751.331L754 606.571L751.331 598.44Z" fill="#D6572E"/>
<path d="M717.992 635.61V627.907L689.164 625.156L685.469 632.859L717.992 635.61Z" fill="#545151" stroke="black"/>
<path d="M722.637 557.727L718.687 566.292C712.895 568.576 705.743 565.341 702.89 563.437L706.181 554.301C708.288 557.499 718.029 557.917 722.637 557.727Z" fill="#D6572E"/>
<path d="M735.414 546.17L724.13 558.947C715.103 558.947 706.209 555.463 702.891 553.72V549.655V546.17V539.782V535.136V531.07C704.218 528.941 706.873 524.101 706.873 521.778L712.847 518.293L717.493 521.778H724.13C727.892 522.358 735.414 523.752 735.414 524.682V531.07V539.782V546.17Z" fill="#340E06"/>
<path d="M701.731 532.598C710.652 536.559 728.68 538.65 736.578 539.2V535.349C723.755 534.908 709.398 530.764 703.822 528.746L701.731 532.598Z" fill="#26F814"/>
<path d="M668.046 565.917C673.156 565.452 679.08 559.915 681.403 557.205L683.727 559.528C679.545 564.639 672.305 567.853 669.207 568.821L668.046 565.917Z" fill="#133F04" stroke="black"/>
<path d="M739.177 607.948C741.886 603.59 749.493 600.781 752.957 599.922L751.924 596.803C745.48 598.246 739.359 603.273 737.103 605.607L739.177 607.948Z" fill="#133F04" stroke="black"/>
<path d="M751.097 597.278C751.291 591.277 749.819 577.531 742.385 570.562L719.154 565.335C716.444 567.271 709.397 569.517 702.893 563.012L695.923 561.27L687.792 563.012L683.727 559.527C682.372 561.463 677.687 566.032 669.788 568.82C671.724 572.692 676.409 580.784 679.661 582.178V590.309C681.597 597.084 685.934 610.984 687.792 612.378L689.535 624.574L719.154 628.64L722.639 614.701C726.044 611.782 732.465 605.441 735.006 600.182L737.158 605.409C740.45 602.311 747.845 596.349 751.097 597.278Z" fill="#26F814"/>
<path d="M722.639 614.701L719.154 628.64L689.535 624.574L687.792 612.378C685.934 610.984 681.597 597.084 679.661 590.309V582.178C676.409 580.784 671.724 572.692 669.788 568.82C677.687 566.032 682.372 561.463 683.727 559.527L687.792 563.012L695.923 561.27L702.893 563.012C709.397 569.517 716.444 567.271 719.154 565.335L742.385 570.562C749.819 577.531 751.291 591.277 751.097 597.278C747.845 596.349 740.45 602.311 737.158 605.409L735.006 600.182M722.639 614.701L719.154 617.605M722.639 614.701C726.044 611.782 732.465 605.441 735.006 600.182M735.997 597.278C736.926 591.702 736.771 591.47 736.578 592.051L735.997 597.278ZM735.997 597.278C735.846 598.183 735.499 599.162 735.006 600.182" stroke="black"/>
<path d="M708.698 743.246H715.086C720.197 747.428 717.603 752.732 715.667 754.862L708.117 754.281C704.864 749.17 707.149 744.795 708.698 743.246Z" fill="#261706" stroke="black"/>
<path d="M661.994 695.363H668.383C673.494 699.545 670.9 704.849 668.964 706.979L661.414 706.398C658.161 701.287 660.446 696.912 661.994 695.363Z" fill="#261706" stroke="black"/>
<g filter="url(#filter29_f_257_3215)">
<path d="M691.855 622.833L690.694 612.379L683.725 591.471V581.017L676.174 573.467" stroke="black"/>
</g>
<g filter="url(#filter30_f_257_3215)">
<path d="M733.673 591.471C734.447 594.181 732.628 602.505 719.154 614.121" stroke="#133F04"/>
</g>
<path d="M696.473 582.692C696.7 589.697 700.449 606.766 713.63 618.994C706.218 614.559 692.41 601.089 696.473 582.692Z" fill="#510A0A" fill-opacity="0.5"/>
<g filter="url(#filter31_f_257_3215)">
<path d="M665.142 650.129C664.561 651.678 666.072 656.053 676.758 661.164" stroke="#133F04"/>
</g>
<g filter="url(#filter32_f_257_3215)">
<path d="M676.176 673.344C673.67 674.697 667.84 674.62 664.56 663.486" stroke="#133F04"/>
</g>
<g filter="url(#filter33_f_257_3215)">
<path d="M717.412 640.256C720.703 646.257 725.311 663.255 717.412 683.233" stroke="#133F04"/>
</g>
<path d="M690.606 649.992C686.305 649.03 675.063 644.807 664.501 635.609C665.978 639 673.267 646.623 690.606 649.992Z" fill="#510A0A" fill-opacity="0.5"/>
<defs>
<filter id="filter0_d_257_3215" x="7" y="10" width="810" height="428" filterUnits="userSpaceOnUse" color-interpolation-filters="sRGB">
<feFlood flood-opacity="0" result="BackgroundImageFix"/>
<feColorMatrix in="SourceAlpha" type="matrix" values="0 0 0 0 0 0 0 0 0 0 0 0 0 0 0 0 0 0 127 0" result="hardAlpha"/>
<feOffset dy="4"/>
<feGaussianBlur stdDeviation="2"/>
<feComposite in2="hardAlpha" operator="out"/>
<feColorMatrix type="matrix" values="0 0 0 0 0 0 0 0 0 0 0 0 0 0 0 0 0 0 0.25 0"/>
<feBlend mode="normal" in2="BackgroundImageFix" result="effect1_dropShadow_257_3215"/>
<feBlend mode="normal" in="SourceGraphic" in2="effect1_dropShadow_257_3215" result="shape"/>
</filter>
<filter id="filter1_f_257_3215" x="658.5" y="220.995" width="49.5" height="203.01" filterUnits="userSpaceOnUse" color-interpolation-filters="sRGB">
<feFlood flood-opacity="0" result="BackgroundImageFix"/>
<feBlend mode="normal" in="SourceGraphic" in2="BackgroundImageFix" result="shape"/>
<feGaussianBlur stdDeviation="11.5" result="effect1_foregroundBlur_257_3215"/>
</filter>
<filter id="filter2_f_257_3215" x="14" y="293" width="796" height="134" filterUnits="userSpaceOnUse" color-interpolation-filters="sRGB">
<feFlood flood-opacity="0" result="BackgroundImageFix"/>
<feBlend mode="normal" in="SourceGraphic" in2="BackgroundImageFix" result="shape"/>
<feGaussianBlur stdDeviation="2" result="effect1_foregroundBlur_257_3215"/>
</filter>
<filter id="filter3_f_257_3215" x="13.5" y="83" width="793" height="16" filterUnits="userSpaceOnUse" color-interpolation-filters="sRGB">
<feFlood flood-opacity="0" result="BackgroundImageFix"/>
<feBlend mode="normal" in="SourceGraphic" in2="BackgroundImageFix" result="shape"/>
<feGaussianBlur stdDeviation="3" result="effect1_foregroundBlur_257_3215"/>
</filter>
<filter id="filter4_d_257_3215" x="7" y="10" width="810" height="89" filterUnits="userSpaceOnUse" color-interpolation-filters="sRGB">
<feFlood flood-opacity="0" result="BackgroundImageFix"/>
<feColorMatrix in="SourceAlpha" type="matrix" values="0 0 0 0 0 0 0 0 0 0 0 0 0 0 0 0 0 0 127 0" result="hardAlpha"/>
<feOffset dy="4"/>
<feGaussianBlur stdDeviation="2"/>
<feComposite in2="hardAlpha" operator="out"/>
<feColorMatrix type="matrix" values="0 0 0 0 0 0 0 0 0 0 0 0 0 0 0 0 0 0 0.25 0"/>
<feBlend mode="normal" in2="BackgroundImageFix" result="effect1_dropShadow_257_3215"/>
<feBlend mode="normal" in="SourceGraphic" in2="effect1_dropShadow_257_3215" result="shape"/>
</filter>
<filter id="filter5_f_257_3215" x="665.5" y="74.5498" width="154.887" height="232.45" filterUnits="userSpaceOnUse" color-interpolation-filters="sRGB">
<feFlood flood-opacity="0" result="BackgroundImageFix"/>
<feBlend mode="normal" in="SourceGraphic" in2="BackgroundImageFix" result="shape"/>
<feGaussianBlur stdDeviation="10" result="effect1_foregroundBlur_257_3215"/>
</filter>
<filter id="filter6_f_257_3215" x="8.61328" y="69.5498" width="154.887" height="232.45" filterUnits="userSpaceOnUse" color-interpolation-filters="sRGB">
<feFlood flood-opacity="0" result="BackgroundImageFix"/>
<feBlend mode="normal" in="SourceGraphic" in2="BackgroundImageFix" result="shape"/>
<feGaussianBlur stdDeviation="10" result="effect1_foregroundBlur_257_3215"/>
</filter>
<filter id="filter7_f_257_3215" x="2.82031" y="263" width="818.359" height="179.984" filterUnits="userSpaceOnUse" color-interpolation-filters="sRGB">
<feFlood flood-opacity="0" result="BackgroundImageFix"/>
<feBlend mode="normal" in="SourceGraphic" in2="BackgroundImageFix" result="shape"/>
<feGaussianBlur stdDeviation="9.5" result="effect1_foregroundBlur_257_3215"/>
</filter>
<filter id="filter8_f_257_3215" x="0" y="0" width="827" height="98" filterUnits="userSpaceOnUse" color-interpolation-filters="sRGB">
<feFlood flood-opacity="0" result="BackgroundImageFix"/>
<feBlend mode="normal" in="SourceGraphic" in2="BackgroundImageFix" result="shape"/>
<feGaussianBlur stdDeviation="6.5" result="effect1_foregroundBlur_257_3215"/>
</filter>
<filter id="filter9_f_257_3215" x="143.648" y="505.113" width="28.5312" height="61.7754" filterUnits="userSpaceOnUse" color-interpolation-filters="sRGB">
<feFlood flood-opacity="0" result="BackgroundImageFix"/>
<feBlend mode="normal" in="SourceGraphic" in2="BackgroundImageFix" result="shape"/>
<feGaussianBlur stdDeviation="3" result="effect1_foregroundBlur_257_3215"/>
</filter>
<filter id="filter10_f_257_3215" x="103.676" y="525.334" width="23.4961" height="31.166" filterUnits="userSpaceOnUse" color-interpolation-filters="sRGB">
<feFlood flood-opacity="0" result="BackgroundImageFix"/>
<feBlend mode="normal" in="SourceGraphic" in2="BackgroundImageFix" result="shape"/>
<feGaussianBlur stdDeviation="2" result="effect1_foregroundBlur_257_3215"/>
</filter>
<filter id="filter11_f_257_3215" x="162.027" y="584.953" width="18.4375" height="17.6621" filterUnits="userSpaceOnUse" color-interpolation-filters="sRGB">
<feFlood flood-opacity="0" result="BackgroundImageFix"/>
<feBlend mode="normal" in="SourceGraphic" in2="BackgroundImageFix" result="shape"/>
<feGaussianBlur stdDeviation="1.5" result="effect1_foregroundBlur_257_3215"/>
</filter>
<filter id="filter12_f_257_3215" x="162.586" y="598.346" width="18.332" height="17.0938" filterUnits="userSpaceOnUse" color-interpolation-filters="sRGB">
<feFlood flood-opacity="0" result="BackgroundImageFix"/>
<feBlend mode="normal" in="SourceGraphic" in2="BackgroundImageFix" result="shape"/>
<feGaussianBlur stdDeviation="1.5" result="effect1_foregroundBlur_257_3215"/>
</filter>
<filter id="filter13_f_257_3215" x="114.727" y="573.016" width="15.3281" height="53.4023" filterUnits="userSpaceOnUse" color-interpolation-filters="sRGB">
<feFlood flood-opacity="0" result="BackgroundImageFix"/>
<feBlend mode="normal" in="SourceGraphic" in2="BackgroundImageFix" result="shape"/>
<feGaussianBlur stdDeviation="2.5" result="effect1_foregroundBlur_257_3215"/>
</filter>
<filter id="filter14_f_257_3215" x="420.648" y="687.113" width="28.5312" height="61.7754" filterUnits="userSpaceOnUse" color-interpolation-filters="sRGB">
<feFlood flood-opacity="0" result="BackgroundImageFix"/>
<feBlend mode="normal" in="SourceGraphic" in2="BackgroundImageFix" result="shape"/>
<feGaussianBlur stdDeviation="3" result="effect1_foregroundBlur_257_3215"/>
</filter>
<filter id="filter15_f_257_3215" x="380.676" y="707.334" width="23.4961" height="31.166" filterUnits="userSpaceOnUse" color-interpolation-filters="sRGB">
<feFlood flood-opacity="0" result="BackgroundImageFix"/>
<feBlend mode="normal" in="SourceGraphic" in2="BackgroundImageFix" result="shape"/>
<feGaussianBlur stdDeviation="2" result="effect1_foregroundBlur_257_3215"/>
</filter>
<filter id="filter16_f_257_3215" x="439.027" y="766.953" width="18.4375" height="17.6621" filterUnits="userSpaceOnUse" color-interpolation-filters="sRGB">
<feFlood flood-opacity="0" result="BackgroundImageFix"/>
<feBlend mode="normal" in="SourceGraphic" in2="BackgroundImageFix" result="shape"/>
<feGaussianBlur stdDeviation="1.5" result="effect1_foregroundBlur_257_3215"/>
</filter>
<filter id="filter17_f_257_3215" x="439.586" y="780.346" width="18.332" height="17.0938" filterUnits="userSpaceOnUse" color-interpolation-filters="sRGB">
<feFlood flood-opacity="0" result="BackgroundImageFix"/>
<feBlend mode="normal" in="SourceGraphic" in2="BackgroundImageFix" result="shape"/>
<feGaussianBlur stdDeviation="1.5" result="effect1_foregroundBlur_257_3215"/>
</filter>
<filter id="filter18_f_257_3215" x="391.727" y="755.016" width="15.3281" height="53.4023" filterUnits="userSpaceOnUse" color-interpolation-filters="sRGB">
<feFlood flood-opacity="0" result="BackgroundImageFix"/>
<feBlend mode="normal" in="SourceGraphic" in2="BackgroundImageFix" result="shape"/>
<feGaussianBlur stdDeviation="2.5" result="effect1_foregroundBlur_257_3215"/>
</filter>
<filter id="filter19_f_257_3215" x="106.82" y="806.113" width="28.5312" height="61.7754" filterUnits="userSpaceOnUse" color-interpolation-filters="sRGB">
<feFlood flood-opacity="0" result="BackgroundImageFix"/>
<feBlend mode="normal" in="SourceGraphic" in2="BackgroundImageFix" result="shape"/>
<feGaussianBlur stdDeviation="3" result="effect1_foregroundBlur_257_3215"/>
</filter>
<filter id="filter20_f_257_3215" x="151.828" y="826.334" width="23.4961" height="31.166" filterUnits="userSpaceOnUse" color-interpolation-filters="sRGB">
<feFlood flood-opacity="0" result="BackgroundImageFix"/>
<feBlend mode="normal" in="SourceGraphic" in2="BackgroundImageFix" result="shape"/>
<feGaussianBlur stdDeviation="2" result="effect1_foregroundBlur_257_3215"/>
</filter>
<filter id="filter21_f_257_3215" x="98.5352" y="885.953" width="18.4375" height="17.6621" filterUnits="userSpaceOnUse" color-interpolation-filters="sRGB">
<feFlood flood-opacity="0" result="BackgroundImageFix"/>
<feBlend mode="normal" in="SourceGraphic" in2="BackgroundImageFix" result="shape"/>
<feGaussianBlur stdDeviation="1.5" result="effect1_foregroundBlur_257_3215"/>
</filter>
<filter id="filter22_f_257_3215" x="98.082" y="899.346" width="18.332" height="17.0938" filterUnits="userSpaceOnUse" color-interpolation-filters="sRGB">
<feFlood flood-opacity="0" result="BackgroundImageFix"/>
<feBlend mode="normal" in="SourceGraphic" in2="BackgroundImageFix" result="shape"/>
<feGaussianBlur stdDeviation="1.5" result="effect1_foregroundBlur_257_3215"/>
</filter>
<filter id="filter23_f_257_3215" x="148.945" y="874.016" width="15.3281" height="53.4023" filterUnits="userSpaceOnUse" color-interpolation-filters="sRGB">
<feFlood flood-opacity="0" result="BackgroundImageFix"/>
<feBlend mode="normal" in="SourceGraphic" in2="BackgroundImageFix" result="shape"/>
<feGaussianBlur stdDeviation="2.5" result="effect1_foregroundBlur_257_3215"/>
</filter>
<filter id="filter24_f_257_3215" x="654.82" y="1047.11" width="28.5312" height="61.7754" filterUnits="userSpaceOnUse" color-interpolation-filters="sRGB">
<feFlood flood-opacity="0" result="BackgroundImageFix"/>
<feBlend mode="normal" in="SourceGraphic" in2="BackgroundImageFix" result="shape"/>
<feGaussianBlur stdDeviation="3" result="effect1_foregroundBlur_257_3215"/>
</filter>
<filter id="filter25_f_257_3215" x="699.828" y="1067.33" width="23.4961" height="31.166" filterUnits="userSpaceOnUse" color-interpolation-filters="sRGB">
<feFlood flood-opacity="0" result="BackgroundImageFix"/>
<feBlend mode="normal" in="SourceGraphic" in2="BackgroundImageFix" result="shape"/>
<feGaussianBlur stdDeviation="2" result="effect1_foregroundBlur_257_3215"/>
</filter>
<filter id="filter26_f_257_3215" x="646.535" y="1126.95" width="18.4375" height="17.6621" filterUnits="userSpaceOnUse" color-interpolation-filters="sRGB">
<feFlood flood-opacity="0" result="BackgroundImageFix"/>
<feBlend mode="normal" in="SourceGraphic" in2="BackgroundImageFix" result="shape"/>
<feGaussianBlur stdDeviation="1.5" result="effect1_foregroundBlur_257_3215"/>
</filter>
<filter id="filter27_f_257_3215" x="646.082" y="1140.35" width="18.332" height="17.0938" filterUnits="userSpaceOnUse" color-interpolation-filters="sRGB">
<feFlood flood-opacity="0" result="BackgroundImageFix"/>
<feBlend mode="normal" in="SourceGraphic" in2="BackgroundImageFix" result="shape"/>
<feGaussianBlur stdDeviation="1.5" result="effect1_foregroundBlur_257_3215"/>
</filter>
<filter id="filter28_f_257_3215" x="696.945" y="1115.02" width="15.3281" height="53.4023" filterUnits="userSpaceOnUse" color-interpolation-filters="sRGB">
<feFlood flood-opacity="0" result="BackgroundImageFix"/>
<feBlend mode="normal" in="SourceGraphic" in2="BackgroundImageFix" result="shape"/>
<feGaussianBlur stdDeviation="2.5" result="effect1_foregroundBlur_257_3215"/>
</filter>
<filter id="filter29_f_257_3215" x="669.82" y="567.113" width="28.5312" height="61.7754" filterUnits="userSpaceOnUse" color-interpolation-filters="sRGB">
<feFlood flood-opacity="0" result="BackgroundImageFix"/>
<feBlend mode="normal" in="SourceGraphic" in2="BackgroundImageFix" result="shape"/>
<feGaussianBlur stdDeviation="3" result="effect1_foregroundBlur_257_3215"/>
</filter>
<filter id="filter30_f_257_3215" x="714.828" y="587.334" width="23.4961" height="31.166" filterUnits="userSpaceOnUse" color-interpolation-filters="sRGB">
<feFlood flood-opacity="0" result="BackgroundImageFix"/>
<feBlend mode="normal" in="SourceGraphic" in2="BackgroundImageFix" result="shape"/>
<feGaussianBlur stdDeviation="2" result="effect1_foregroundBlur_257_3215"/>
</filter>
<filter id="filter31_f_257_3215" x="661.535" y="646.953" width="18.4375" height="17.6621" filterUnits="userSpaceOnUse" color-interpolation-filters="sRGB">
<feFlood flood-opacity="0" result="BackgroundImageFix"/>
<feBlend mode="normal" in="SourceGraphic" in2="BackgroundImageFix" result="shape"/>
<feGaussianBlur stdDeviation="1.5" result="effect1_foregroundBlur_257_3215"/>
</filter>
<filter id="filter32_f_257_3215" x="661.082" y="660.346" width="18.332" height="17.0938" filterUnits="userSpaceOnUse" color-interpolation-filters="sRGB">
<feFlood flood-opacity="0" result="BackgroundImageFix"/>
<feBlend mode="normal" in="SourceGraphic" in2="BackgroundImageFix" result="shape"/>
<feGaussianBlur stdDeviation="1.5" result="effect1_foregroundBlur_257_3215"/>
</filter>
<filter id="filter33_f_257_3215" x="711.945" y="635.016" width="15.3281" height="53.4023" filterUnits="userSpaceOnUse" color-interpolation-filters="sRGB">
<feFlood flood-opacity="0" result="BackgroundImageFix"/>
<feBlend mode="normal" in="SourceGraphic" in2="BackgroundImageFix" result="shape"/>
<feGaussianBlur stdDeviation="2.5" result="effect1_foregroundBlur_257_3215"/>
</filter>
<linearGradient id="paint0_linear_257_3215" x1="142.5" y1="453.5" x2="142.5" y2="461" gradientUnits="userSpaceOnUse">
<stop stop-color="#555555"/>
<stop offset="0.534375" stop-color="#C9C9C9"/>
</linearGradient>
<linearGradient id="paint1_linear_257_3215" x1="412.25" y1="91" x2="412.25" y2="125.5" gradientUnits="userSpaceOnUse">
<stop stop-color="#8F4D1C"/>
<stop offset="1" stop-color="#311806"/>
</linearGradient>
<linearGradient id="paint2_linear_257_3215" x1="412" y1="287" x2="412" y2="297" gradientUnits="userSpaceOnUse">
<stop stop-color="#6B6B6B"/>
<stop offset="0.190625" stop-color="#ADABAB"/>
<stop offset="0.758333" stop-color="#ADABAB"/>
<stop offset="1" stop-color="#676767"/>
</linearGradient>
</defs>
</svg>
