<svg width="200" height="68" viewBox="0 0 200 68" fill="none" xmlns="http://www.w3.org/2000/svg">
<g filter="url(#filter0_i_97_1870)">
<rect width="200" height="68" rx="10" fill="white"/>
</g>
<g filter="url(#filter1_i_97_1870)">
<rect x="2" y="2" width="196" height="64" rx="10" fill="#D6A706"/>
</g>
<rect x="2" y="2" width="34" height="64" rx="10" fill="url(#paint0_linear_97_1870)"/>
<path d="M16.9231 34.436C17.0431 35.036 17.3011 35.492 17.6971 35.804C18.0931 36.116 18.6271 36.272 19.2991 36.272C20.1511 36.272 20.7751 35.936 21.1711 35.264C21.5671 34.592 21.7651 33.446 21.7651 31.826C21.4771 32.234 21.0691 32.552 20.5411 32.78C20.0251 32.996 19.4611 33.104 18.8491 33.104C18.0691 33.104 17.3611 32.948 16.7251 32.636C16.0891 32.312 15.5851 31.838 15.2131 31.214C14.8531 30.578 14.6731 29.81 14.6731 28.91C14.6731 27.59 15.0571 26.54 15.8251 25.76C16.6051 24.968 17.6731 24.572 19.0291 24.572C20.6611 24.572 21.8191 25.118 22.5031 26.21C23.1991 27.29 23.5471 28.952 23.5471 31.196C23.5471 32.744 23.4151 34.01 23.1511 34.994C22.8991 35.978 22.4551 36.722 21.8191 37.226C21.1831 37.73 20.3011 37.982 19.1731 37.982C17.8891 37.982 16.8991 37.646 16.2031 36.974C15.5071 36.302 15.1171 35.456 15.0331 34.436H16.9231ZM19.2091 31.376C19.9291 31.376 20.4931 31.154 20.9011 30.71C21.3211 30.254 21.5311 29.654 21.5311 28.91C21.5311 28.082 21.3091 27.44 20.8651 26.984C20.4331 26.516 19.8391 26.282 19.0831 26.282C18.3271 26.282 17.7271 26.522 17.2831 27.002C16.8511 27.47 16.6351 28.088 16.6351 28.856C16.6351 29.588 16.8451 30.194 17.2651 30.674C17.6971 31.142 18.3451 31.376 19.2091 31.376Z" fill="white"/>
<defs>
<filter id="filter0_i_97_1870" x="0" y="0" width="200" height="68" filterUnits="userSpaceOnUse" color-interpolation-filters="sRGB">
<feFlood flood-opacity="0" result="BackgroundImageFix"/>
<feBlend mode="normal" in="SourceGraphic" in2="BackgroundImageFix" result="shape"/>
<feColorMatrix in="SourceAlpha" type="matrix" values="0 0 0 0 0 0 0 0 0 0 0 0 0 0 0 0 0 0 127 0" result="hardAlpha"/>
<feOffset/>
<feGaussianBlur stdDeviation="2"/>
<feComposite in2="hardAlpha" operator="arithmetic" k2="-1" k3="1"/>
<feColorMatrix type="matrix" values="0 0 0 0 0 0 0 0 0 0 0 0 0 0 0 0 0 0 0.25 0"/>
<feBlend mode="normal" in2="shape" result="effect1_innerShadow_97_1870"/>
</filter>
<filter id="filter1_i_97_1870" x="2" y="2" width="196" height="64" filterUnits="userSpaceOnUse" color-interpolation-filters="sRGB">
<feFlood flood-opacity="0" result="BackgroundImageFix"/>
<feBlend mode="normal" in="SourceGraphic" in2="BackgroundImageFix" result="shape"/>
<feColorMatrix in="SourceAlpha" type="matrix" values="0 0 0 0 0 0 0 0 0 0 0 0 0 0 0 0 0 0 127 0" result="hardAlpha"/>
<feMorphology radius="2" operator="erode" in="SourceAlpha" result="effect1_innerShadow_97_1870"/>
<feOffset/>
<feGaussianBlur stdDeviation="5"/>
<feComposite in2="hardAlpha" operator="arithmetic" k2="-1" k3="1"/>
<feColorMatrix type="matrix" values="0 0 0 0 0 0 0 0 0 0 0 0 0 0 0 0 0 0 0.3 0"/>
<feBlend mode="normal" in2="shape" result="effect1_innerShadow_97_1870"/>
</filter>
<linearGradient id="paint0_linear_97_1870" x1="18.4848" y1="2" x2="18.4849" y2="64.8965" gradientUnits="userSpaceOnUse">
<stop stop-color="#AF8801"/>
<stop offset="1" stop-color="#781568" stop-opacity="0"/>
</linearGradient>
</defs>
</svg>
