<svg width="180" height="245" viewBox="0 0 180 245" fill="none" xmlns="http://www.w3.org/2000/svg">
<path fill-rule="evenodd" clip-rule="evenodd" d="M75.0647 136.544V140.605L57.1992 150.35V161.718H118.916V150.35L99.4267 140.605V136.544H75.0647ZM75.8772 147.914L65.3203 153.598V154.41H111.608L110.796 153.598L99.4271 147.914L97.803 151.162H77.5013L75.8772 147.914Z" fill="#FCC417"/>
<ellipse cx="90.1116" cy="76.247" rx="63.1116" ry="62.247" fill="#FCC417"/>
<path d="M89.6137 22.6454C90.0641 22.6454 90.5325 22.6454 90.9829 22.6635C104.495 23.1158 117.844 28.8323 127.608 38.3297C138.057 48.4965 143.786 62.2451 143.714 77.0249C143.552 113.115 112.133 129.849 90.8208 129.849L90.6406 129.849C61.7618 129.722 38.0534 107.181 37.3869 76.6269C37.0986 63.023 42.6474 48.7498 53.5287 38.0041C63.6895 28.0002 77.165 22.6454 89.6137 22.6454ZM90.8568 123.843C109.971 123.843 138.237 108.14 138.31 77.0249C138.364 53.7608 120.42 29.8454 90.5325 28.8323C79.1467 28.4705 67.4187 32.8484 57.9425 42.2011C48.1061 51.9156 42.5753 64.4341 42.7735 76.5546C43.2059 102.84 64.6082 123.752 90.5865 123.861C90.6586 123.861 90.8027 123.843 90.8568 123.843Z" fill="#FA912C"/>
<path d="M96.4478 147.093C97.9745 147.093 98.8516 145.501 98.8516 142.757C98.8516 140.19 97.9745 138.03 96.0418 138.193C94.4502 138.323 93.898 140.759 94.0441 142.919C94.1903 145.485 94.5151 147.093 96.4478 147.093V147.093Z" fill="#FDFFFF"/>
<path d="M105.674 130.713C106.317 131.578 119.02 128.647 130.745 119.906C141.065 108.763 146.052 96.1582 143.557 95.4823C141.552 94.9391 138.315 108.204 126.423 118.61C115.495 128.144 103.945 128.387 105.674 130.713ZM47.6153 85.699C52.0044 85.0942 47.4514 72.2514 57.632 57.8788C66.4649 45.4096 76.4816 40.8915 75.316 38.1522C73.7498 34.4879 57.7049 43.613 50.2743 58.4836C43.5358 71.949 44.3371 86.1614 47.6153 85.699Z" fill="#FEFFFA"/>
<path d="M37.375 223.254C63.0599 193.375 71.1323 178.436 74.8016 161.837H100.487C98.1382 186.182 71.1323 218.09 57.9229 231V216.614L37.375 223.254Z" fill="#A51818"/>
<path d="M128.664 229.271C130.408 216.534 94.0096 173.82 75.5921 154.056H103.218C141.604 192.267 150.231 214.63 149.747 221.036C145.094 216.643 136.661 212.251 133.026 210.604C133.607 218.071 130.36 226.16 128.664 229.271Z" fill="#EE1717"/>
</svg>
