<svg preserveAspectRatio="none" viewBox="0 0 794 1077" fill="none" xmlns="http://www.w3.org/2000/svg">
<g filter="url(#filter0_d_257_3169)">
<g clip-path="url(#clip0_257_3169)">
<rect x="4" y="140" width="786" height="929" rx="10" fill="url(#paint0_linear_257_3169)"/>
<path d="M223.46 430.305L-14.2812 667H-152V60H806V416.794L521.515 133.561L223.46 430.305Z" fill="#0A51C0"/>
<g filter="url(#filter1_d_257_3169)">
<rect x="-75" y="183.844" width="646.075" height="577.025" rx="91" transform="rotate(-45 -75 183.844)" fill="#2B445A"/>
</g>
<path d="M808 466.5L495.5 154L480 169.5L808 497.5V466.5Z" fill="#0A51C0"/>
<g filter="url(#filter2_d_257_3169)">
<rect x="496.84" y="312.324" width="194" height="194" rx="29" transform="rotate(-45 496.84 312.324)" fill="#2B445A"/>
</g>
<g filter="url(#filter3_d_257_3169)">
<rect x="316.84" y="252.772" width="120.398" height="120.398" rx="11" transform="rotate(-45 316.84 252.772)" fill="#123D82"/>
</g>
<g filter="url(#filter4_d_257_3169)">
<rect x="331" y="267.268" width="100.788" height="100.788" rx="11" transform="rotate(-45 331 267.268)" fill="#0A51C0"/>
</g>
<g filter="url(#filter5_d_257_3169)">
<rect x="713" y="226.799" width="57.6983" height="57.6983" rx="11" transform="rotate(-45 713 226.799)" fill="#2B445A"/>
</g>
<g filter="url(#filter6_d_257_3169)">
<rect x="715.121" y="208.799" width="54.6983" height="54.6983" rx="9.5" transform="rotate(-45 715.121 208.799)" stroke="white" stroke-width="3" shape-rendering="crispEdges"/>
</g>
<path d="M497 183.894L217.787 463.166L1 680V648.213L481.11 168L497 183.894Z" fill="#0A51C0"/>
<g filter="url(#filter7_d_257_3169)">
<rect x="451.84" y="113.104" width="75.8027" height="75.8027" rx="11" transform="rotate(-45 451.84 113.104)" fill="#093A88"/>
</g>
<g filter="url(#filter8_d_257_3169)">
<rect x="318.961" y="235.638" width="117.398" height="117.398" rx="9.5" transform="rotate(-45 318.961 235.638)" stroke="white" stroke-width="3" shape-rendering="crispEdges"/>
</g>
<g filter="url(#filter9_d_257_3169)">
<rect x="498.961" y="277.179" width="191" height="191" rx="27.5" transform="rotate(-45 498.961 277.179)" stroke="white" stroke-width="3" shape-rendering="crispEdges"/>
</g>
<g filter="url(#filter10_d_257_3169)">
<path d="M790 852L519 1068H790V852Z" fill="#0A51C0"/>
</g>
<path d="M4 969L356 1069H4V969Z" fill="#2B355A"/>
<path d="M688.872 781.258V775.615H710.637C717.946 777.765 719.236 783.856 718.967 786.632L710.637 816.996C703.973 830.538 692.276 834.103 687.26 834.193H671.406L675.974 828.281C695.321 830.216 703.92 819.235 705.8 813.503L712.249 789.05C714.829 784.106 711.175 781.795 709.025 781.258H688.872Z" fill="#FED201"/>
<path d="M595.128 781.258V775.615H573.363C566.054 777.765 564.764 783.856 565.033 786.632L573.363 816.996C580.027 830.538 591.724 834.103 596.74 834.193H612.594L608.026 828.281C588.679 830.216 580.08 819.235 578.2 813.503L571.751 789.05C569.171 784.106 572.825 781.795 574.975 781.258H595.128Z" fill="#FED201"/>
<path d="M694.904 784.483C694.259 827.475 665.436 850.942 651.105 857.302C645.516 861.601 646.627 867.512 647.881 869.931C644.657 874.015 648.687 881.485 651.105 884.71V895.458C661.639 897.607 669.109 907.639 671.527 912.386H611.606C616.12 901.638 626.205 896.622 630.684 895.458V884.71C637.133 878.691 635.879 872.349 634.446 869.931C637.455 864.342 633.908 859.183 631.759 857.302C576.406 831.775 590.378 769.704 587.96 769.435C586.025 769.22 585.721 768.45 585.81 768.092C584.091 761.643 588.497 757.344 590.916 756H690.336C699.15 760.084 697.591 768.36 694.904 769.704V784.483Z" fill="#FED201"/>
<rect x="597.242" y="912.654" width="87.5977" height="5.9115" rx="2" fill="#706F6F"/>
<rect x="601.008" y="918.566" width="80.6114" height="33.3194" fill="#4D4D4D"/>
<rect x="592.945" y="957.26" width="96.7337" height="9.13596" rx="1" fill="#1C1C1C"/>
<path d="M597.09 951.271H684.645L689.465 957.822H593.074L597.09 951.271Z" fill="#2D2A2A"/>
<rect x="612.828" y="923.941" width="56.428" height="23.1086" rx="5" fill="#FED201"/>
<rect x="589.332" y="769.721" width="104.813" height="3.74332" fill="#E09338"/>
<path d="M637.525 859.091C591.523 844.411 586.522 799.666 588.393 773.463H673.403C683.671 826.311 656.241 855.348 637.525 859.091Z" fill="#FEC601"/>
<circle cx="641.737" cy="805.282" r="22.4599" fill="#E09338"/>
<path d="M641.27 787.5L645.157 799.463H657.735L647.559 806.856L651.446 818.819L641.27 811.426L631.094 818.819L634.981 806.856L624.804 799.463H637.383L641.27 787.5Z" fill="#FED201"/>
<path d="M596.349 769.721C589.611 763.731 593.542 758.491 596.349 756.619H674.959C672.339 759.988 673.867 766.757 674.959 769.721H596.349Z" fill="#FEC601"/>
<path d="M603.37 769.252C600.75 762.514 604.462 757.71 606.645 756.15H620.215C615.348 759.145 615.38 766.133 616.004 769.252H603.37Z" fill="#FDDD45"/>
<path d="M630.51 841.778C606.247 829.804 603.884 791.245 605.735 773.463H618.549C611.373 800.482 623.533 830.265 630.51 841.778Z" fill="#FDDD45"/>
<path d="M650.627 857.689C643.889 860.309 635.03 858.313 631.91 857.221C638.461 864.239 634.25 869.854 634.718 869.854H647.819C645.48 865.175 647.351 860.496 650.627 857.689Z" fill="#FEA801"/>
</g>
</g>
<g clip-path="url(#clip1_257_3169)">
<rect x="4" width="786" height="125" rx="10" fill="white"/>
<rect x="-4" y="-74" width="802" height="139" rx="10" fill="#0A51C0"/>
<g filter="url(#filter11_d_257_3169)">
<rect x="-2.5859" y="42.9872" width="92.9906" height="92.9906" rx="9" transform="rotate(-45.7182 -2.5859 42.9872)" stroke="white" stroke-width="2" shape-rendering="crispEdges"/>
</g>
<g filter="url(#filter12_d_257_3169)">
<rect x="22" y="42.8672" width="57.0841" height="57.0841" rx="10" transform="rotate(-45.7182 22 42.8672)" fill="#223B62" fill-opacity="0.71" shape-rendering="crispEdges"/>
</g>
<g filter="url(#filter13_d_257_3169)">
<rect x="686" y="60.6914" width="69.9499" height="69.9499" rx="10" transform="rotate(-45.7182 686 60.6914)" fill="#1F3449"/>
</g>
<g filter="url(#filter14_d_257_3169)">
<rect x="578" y="-9.92188" width="69.9499" height="69.9499" rx="10" transform="rotate(-45.7182 578 -9.92188)" fill="#1F3449"/>
</g>
<g filter="url(#filter15_d_257_3169)">
<rect x="634.121" y="57.6023" width="92.8613" height="92.8613" rx="8.5" transform="rotate(-45.7182 634.121 57.6023)" stroke="white" stroke-width="3" shape-rendering="crispEdges"/>
</g>
<g opacity="0.5" filter="url(#filter16_d_257_3169)">
<rect x="90" y="108.979" width="57.2407" height="57.2407" rx="10" transform="rotate(-45.7182 90 108.979)" fill="#1F3449"/>
</g>
<g opacity="0.5" filter="url(#filter17_d_257_3169)">
<rect x="85" y="-15.0205" width="57.2407" height="57.2407" rx="10" transform="rotate(-45.7182 85 -15.0205)" fill="#1F3449"/>
</g>
</g>
<defs>
<filter id="filter0_d_257_3169" x="0" y="140" width="794" height="937" filterUnits="userSpaceOnUse" color-interpolation-filters="sRGB">
<feFlood flood-opacity="0" result="BackgroundImageFix"/>
<feColorMatrix in="SourceAlpha" type="matrix" values="0 0 0 0 0 0 0 0 0 0 0 0 0 0 0 0 0 0 127 0" result="hardAlpha"/>
<feOffset dy="4"/>
<feGaussianBlur stdDeviation="2"/>
<feComposite in2="hardAlpha" operator="out"/>
<feColorMatrix type="matrix" values="0 0 0 0 0 0 0 0 0 0 0 0 0 0 0 0 0 0 0.25 0"/>
<feBlend mode="normal" in2="BackgroundImageFix" result="effect1_dropShadow_257_3169"/>
<feBlend mode="normal" in="SourceGraphic" in2="effect1_dropShadow_257_3169" result="shape"/>
</filter>
<filter id="filter1_d_257_3169" x="-41.3047" y="-235.307" width="797.473" height="797.475" filterUnits="userSpaceOnUse" color-interpolation-filters="sRGB">
<feFlood flood-opacity="0" result="BackgroundImageFix"/>
<feColorMatrix in="SourceAlpha" type="matrix" values="0 0 0 0 0 0 0 0 0 0 0 0 0 0 0 0 0 0 127 0" result="hardAlpha"/>
<feOffset dy="4"/>
<feGaussianBlur stdDeviation="2"/>
<feComposite in2="hardAlpha" operator="out"/>
<feColorMatrix type="matrix" values="0 0 0 0 0 0 0 0 0 0 0 0 0 0 0 0 0 0 0.25 0"/>
<feBlend mode="normal" in2="BackgroundImageFix" result="effect1_dropShadow_257_3169"/>
<feBlend mode="normal" in="SourceGraphic" in2="effect1_dropShadow_257_3169" result="shape"/>
</filter>
<filter id="filter2_d_257_3169" x="478.852" y="163.157" width="310.332" height="310.333" filterUnits="userSpaceOnUse" color-interpolation-filters="sRGB">
<feFlood flood-opacity="0" result="BackgroundImageFix"/>
<feColorMatrix in="SourceAlpha" type="matrix" values="0 0 0 0 0 0 0 0 0 0 0 0 0 0 0 0 0 0 127 0" result="hardAlpha"/>
<feMorphology radius="10" operator="dilate" in="SourceAlpha" result="effect1_dropShadow_257_3169"/>
<feOffset dy="6"/>
<feGaussianBlur stdDeviation="10"/>
<feComposite in2="hardAlpha" operator="out"/>
<feColorMatrix type="matrix" values="0 0 0 0 0 0 0 0 0 0 0 0 0 0 0 0 0 0 0.25 0"/>
<feBlend mode="normal" in2="BackgroundImageFix" result="effect1_dropShadow_257_3169"/>
<feBlend mode="normal" in="SourceGraphic" in2="effect1_dropShadow_257_3169" result="shape"/>
</filter>
<filter id="filter3_d_257_3169" x="302.395" y="164.194" width="199.156" height="199.156" filterUnits="userSpaceOnUse" color-interpolation-filters="sRGB">
<feFlood flood-opacity="0" result="BackgroundImageFix"/>
<feColorMatrix in="SourceAlpha" type="matrix" values="0 0 0 0 0 0 0 0 0 0 0 0 0 0 0 0 0 0 127 0" result="hardAlpha"/>
<feMorphology radius="9" operator="dilate" in="SourceAlpha" result="effect1_dropShadow_257_3169"/>
<feOffset dy="11"/>
<feGaussianBlur stdDeviation="5"/>
<feComposite in2="hardAlpha" operator="out"/>
<feColorMatrix type="matrix" values="0 0 0 0 0 0 0 0 0 0 0 0 0 0 0 0 0 0 0.25 0"/>
<feBlend mode="normal" in2="BackgroundImageFix" result="effect1_dropShadow_257_3169"/>
<feBlend mode="normal" in="SourceGraphic" in2="effect1_dropShadow_257_3169" result="shape"/>
</filter>
<filter id="filter4_d_257_3169" x="331.555" y="200.556" width="141.426" height="141.424" filterUnits="userSpaceOnUse" color-interpolation-filters="sRGB">
<feFlood flood-opacity="0" result="BackgroundImageFix"/>
<feColorMatrix in="SourceAlpha" type="matrix" values="0 0 0 0 0 0 0 0 0 0 0 0 0 0 0 0 0 0 127 0" result="hardAlpha"/>
<feOffset dy="4"/>
<feGaussianBlur stdDeviation="2"/>
<feComposite in2="hardAlpha" operator="out"/>
<feColorMatrix type="matrix" values="0 0 0 0 0 0 0 0 0 0 0 0 0 0 0 0 0 0 0.25 0"/>
<feBlend mode="normal" in2="BackgroundImageFix" result="effect1_dropShadow_257_3169"/>
<feBlend mode="normal" in="SourceGraphic" in2="effect1_dropShadow_257_3169" result="shape"/>
</filter>
<filter id="filter5_d_257_3169" x="713.555" y="190.557" width="80.4883" height="80.4844" filterUnits="userSpaceOnUse" color-interpolation-filters="sRGB">
<feFlood flood-opacity="0" result="BackgroundImageFix"/>
<feColorMatrix in="SourceAlpha" type="matrix" values="0 0 0 0 0 0 0 0 0 0 0 0 0 0 0 0 0 0 127 0" result="hardAlpha"/>
<feOffset dy="4"/>
<feGaussianBlur stdDeviation="2"/>
<feComposite in2="hardAlpha" operator="out"/>
<feColorMatrix type="matrix" values="0 0 0 0 0 0 0 0 0 0 0 0 0 0 0 0 0 0 0.25 0"/>
<feBlend mode="normal" in2="BackgroundImageFix" result="effect1_dropShadow_257_3169"/>
<feBlend mode="normal" in="SourceGraphic" in2="effect1_dropShadow_257_3169" result="shape"/>
</filter>
<filter id="filter6_d_257_3169" x="713.555" y="172.557" width="80.4883" height="80.4844" filterUnits="userSpaceOnUse" color-interpolation-filters="sRGB">
<feFlood flood-opacity="0" result="BackgroundImageFix"/>
<feColorMatrix in="SourceAlpha" type="matrix" values="0 0 0 0 0 0 0 0 0 0 0 0 0 0 0 0 0 0 127 0" result="hardAlpha"/>
<feOffset dy="4"/>
<feGaussianBlur stdDeviation="2"/>
<feComposite in2="hardAlpha" operator="out"/>
<feColorMatrix type="matrix" values="0 0 0 0 0 0 0 0 0 0 0 0 0 0 0 0 0 0 0.25 0"/>
<feBlend mode="normal" in2="BackgroundImageFix" result="effect1_dropShadow_257_3169"/>
<feBlend mode="normal" in="SourceGraphic" in2="effect1_dropShadow_257_3169" result="shape"/>
</filter>
<filter id="filter7_d_257_3169" x="452.395" y="64.0605" width="106.09" height="106.088" filterUnits="userSpaceOnUse" color-interpolation-filters="sRGB">
<feFlood flood-opacity="0" result="BackgroundImageFix"/>
<feColorMatrix in="SourceAlpha" type="matrix" values="0 0 0 0 0 0 0 0 0 0 0 0 0 0 0 0 0 0 127 0" result="hardAlpha"/>
<feOffset dy="4"/>
<feGaussianBlur stdDeviation="2"/>
<feComposite in2="hardAlpha" operator="out"/>
<feColorMatrix type="matrix" values="0 0 0 0 0 0 0 0 0 0 0 0 0 0 0 0 0 0 0.25 0"/>
<feBlend mode="normal" in2="BackgroundImageFix" result="effect1_dropShadow_257_3169"/>
<feBlend mode="normal" in="SourceGraphic" in2="effect1_dropShadow_257_3169" result="shape"/>
</filter>
<filter id="filter8_d_257_3169" x="317.395" y="155.06" width="169.156" height="169.156" filterUnits="userSpaceOnUse" color-interpolation-filters="sRGB">
<feFlood flood-opacity="0" result="BackgroundImageFix"/>
<feColorMatrix in="SourceAlpha" type="matrix" values="0 0 0 0 0 0 0 0 0 0 0 0 0 0 0 0 0 0 127 0" result="hardAlpha"/>
<feOffset dy="4"/>
<feGaussianBlur stdDeviation="2"/>
<feComposite in2="hardAlpha" operator="out"/>
<feColorMatrix type="matrix" values="0 0 0 0 0 0 0 0 0 0 0 0 0 0 0 0 0 0 0.25 0"/>
<feBlend mode="normal" in2="BackgroundImageFix" result="effect1_dropShadow_257_3169"/>
<feBlend mode="normal" in="SourceGraphic" in2="effect1_dropShadow_257_3169" result="shape"/>
</filter>
<filter id="filter9_d_257_3169" x="504.852" y="152.012" width="258.332" height="258.334" filterUnits="userSpaceOnUse" color-interpolation-filters="sRGB">
<feFlood flood-opacity="0" result="BackgroundImageFix"/>
<feColorMatrix in="SourceAlpha" type="matrix" values="0 0 0 0 0 0 0 0 0 0 0 0 0 0 0 0 0 0 127 0" result="hardAlpha"/>
<feOffset dy="4"/>
<feGaussianBlur stdDeviation="2"/>
<feComposite in2="hardAlpha" operator="out"/>
<feColorMatrix type="matrix" values="0 0 0 0 0 0 0 0 0 0 0 0 0 0 0 0 0 0 0.25 0"/>
<feBlend mode="normal" in2="BackgroundImageFix" result="effect1_dropShadow_257_3169"/>
<feBlend mode="normal" in="SourceGraphic" in2="effect1_dropShadow_257_3169" result="shape"/>
</filter>
<filter id="filter10_d_257_3169" x="509" y="835" width="291" height="236" filterUnits="userSpaceOnUse" color-interpolation-filters="sRGB">
<feFlood flood-opacity="0" result="BackgroundImageFix"/>
<feColorMatrix in="SourceAlpha" type="matrix" values="0 0 0 0 0 0 0 0 0 0 0 0 0 0 0 0 0 0 127 0" result="hardAlpha"/>
<feOffset dy="-7"/>
<feGaussianBlur stdDeviation="5"/>
<feComposite in2="hardAlpha" operator="out"/>
<feColorMatrix type="matrix" values="0 0 0 0 0 0 0 0 0 0 0 0 0 0 0 0 0 0 0.21 0"/>
<feBlend mode="normal" in2="BackgroundImageFix" result="effect1_dropShadow_257_3169"/>
<feBlend mode="normal" in="SourceGraphic" in2="effect1_dropShadow_257_3169" result="shape"/>
</filter>
<filter id="filter11_d_257_3169" x="-3.85938" y="-20.8594" width="134.043" height="134.045" filterUnits="userSpaceOnUse" color-interpolation-filters="sRGB">
<feFlood flood-opacity="0" result="BackgroundImageFix"/>
<feColorMatrix in="SourceAlpha" type="matrix" values="0 0 0 0 0 0 0 0 0 0 0 0 0 0 0 0 0 0 127 0" result="hardAlpha"/>
<feOffset dy="4"/>
<feGaussianBlur stdDeviation="2"/>
<feComposite in2="hardAlpha" operator="out"/>
<feColorMatrix type="matrix" values="0 0 0 0 0 0 0 0 0 0 0 0 0 0 0 0 0 0 0.25 0"/>
<feBlend mode="normal" in2="BackgroundImageFix" result="effect1_dropShadow_257_3169"/>
<feBlend mode="normal" in="SourceGraphic" in2="effect1_dropShadow_257_3169" result="shape"/>
</filter>
<filter id="filter12_d_257_3169" x="22.1406" y="6.14062" width="80.4414" height="80.4414" filterUnits="userSpaceOnUse" color-interpolation-filters="sRGB">
<feFlood flood-opacity="0" result="BackgroundImageFix"/>
<feColorMatrix in="SourceAlpha" type="matrix" values="0 0 0 0 0 0 0 0 0 0 0 0 0 0 0 0 0 0 127 0" result="hardAlpha"/>
<feOffset dy="4"/>
<feGaussianBlur stdDeviation="2"/>
<feComposite in2="hardAlpha" operator="out"/>
<feColorMatrix type="matrix" values="0 0 0 0 0 0 0 0 0 0 0 0 0 0 0 0 0 0 0.25 0"/>
<feBlend mode="normal" in2="BackgroundImageFix" result="effect1_dropShadow_257_3169"/>
<feBlend mode="normal" in="SourceGraphic" in2="effect1_dropShadow_257_3169" result="shape"/>
</filter>
<filter id="filter13_d_257_3169" x="686.141" y="14.7539" width="98.6328" height="98.6348" filterUnits="userSpaceOnUse" color-interpolation-filters="sRGB">
<feFlood flood-opacity="0" result="BackgroundImageFix"/>
<feColorMatrix in="SourceAlpha" type="matrix" values="0 0 0 0 0 0 0 0 0 0 0 0 0 0 0 0 0 0 127 0" result="hardAlpha"/>
<feOffset dy="4"/>
<feGaussianBlur stdDeviation="2"/>
<feComposite in2="hardAlpha" operator="out"/>
<feColorMatrix type="matrix" values="0 0 0 0 0 0 0 0 0 0 0 0 0 0 0 0 0 0 0.25 0"/>
<feBlend mode="normal" in2="BackgroundImageFix" result="effect1_dropShadow_257_3169"/>
<feBlend mode="normal" in="SourceGraphic" in2="effect1_dropShadow_257_3169" result="shape"/>
</filter>
<filter id="filter14_d_257_3169" x="578.141" y="-55.8594" width="98.6328" height="98.6348" filterUnits="userSpaceOnUse" color-interpolation-filters="sRGB">
<feFlood flood-opacity="0" result="BackgroundImageFix"/>
<feColorMatrix in="SourceAlpha" type="matrix" values="0 0 0 0 0 0 0 0 0 0 0 0 0 0 0 0 0 0 127 0" result="hardAlpha"/>
<feOffset dy="4"/>
<feGaussianBlur stdDeviation="2"/>
<feComposite in2="hardAlpha" operator="out"/>
<feColorMatrix type="matrix" values="0 0 0 0 0 0 0 0 0 0 0 0 0 0 0 0 0 0 0.25 0"/>
<feBlend mode="normal" in2="BackgroundImageFix" result="effect1_dropShadow_257_3169"/>
<feBlend mode="normal" in="SourceGraphic" in2="effect1_dropShadow_257_3169" result="shape"/>
</filter>
<filter id="filter15_d_257_3169" x="632.141" y="-6.8584" width="135.277" height="135.275" filterUnits="userSpaceOnUse" color-interpolation-filters="sRGB">
<feFlood flood-opacity="0" result="BackgroundImageFix"/>
<feColorMatrix in="SourceAlpha" type="matrix" values="0 0 0 0 0 0 0 0 0 0 0 0 0 0 0 0 0 0 127 0" result="hardAlpha"/>
<feOffset dy="4"/>
<feGaussianBlur stdDeviation="2"/>
<feComposite in2="hardAlpha" operator="out"/>
<feColorMatrix type="matrix" values="0 0 0 0 0 0 0 0 0 0 0 0 0 0 0 0 0 0 0.25 0"/>
<feBlend mode="normal" in2="BackgroundImageFix" result="effect1_dropShadow_257_3169"/>
<feBlend mode="normal" in="SourceGraphic" in2="effect1_dropShadow_257_3169" result="shape"/>
</filter>
<filter id="filter16_d_257_3169" x="90.1406" y="72.1406" width="80.6641" height="80.6631" filterUnits="userSpaceOnUse" color-interpolation-filters="sRGB">
<feFlood flood-opacity="0" result="BackgroundImageFix"/>
<feColorMatrix in="SourceAlpha" type="matrix" values="0 0 0 0 0 0 0 0 0 0 0 0 0 0 0 0 0 0 127 0" result="hardAlpha"/>
<feOffset dy="4"/>
<feGaussianBlur stdDeviation="2"/>
<feComposite in2="hardAlpha" operator="out"/>
<feColorMatrix type="matrix" values="0 0 0 0 0 0 0 0 0 0 0 0 0 0 0 0 0 0 0.25 0"/>
<feBlend mode="normal" in2="BackgroundImageFix" result="effect1_dropShadow_257_3169"/>
<feBlend mode="normal" in="SourceGraphic" in2="effect1_dropShadow_257_3169" result="shape"/>
</filter>
<filter id="filter17_d_257_3169" x="85.1406" y="-51.8594" width="80.6641" height="80.6631" filterUnits="userSpaceOnUse" color-interpolation-filters="sRGB">
<feFlood flood-opacity="0" result="BackgroundImageFix"/>
<feColorMatrix in="SourceAlpha" type="matrix" values="0 0 0 0 0 0 0 0 0 0 0 0 0 0 0 0 0 0 127 0" result="hardAlpha"/>
<feOffset dy="4"/>
<feGaussianBlur stdDeviation="2"/>
<feComposite in2="hardAlpha" operator="out"/>
<feColorMatrix type="matrix" values="0 0 0 0 0 0 0 0 0 0 0 0 0 0 0 0 0 0 0.25 0"/>
<feBlend mode="normal" in2="BackgroundImageFix" result="effect1_dropShadow_257_3169"/>
<feBlend mode="normal" in="SourceGraphic" in2="effect1_dropShadow_257_3169" result="shape"/>
</filter>
<linearGradient id="paint0_linear_257_3169" x1="599.5" y1="391" x2="245.5" y2="873" gradientUnits="userSpaceOnUse">
<stop stop-color="white"/>
<stop offset="0.990882" stop-color="#CECECE"/>
</linearGradient>
<clipPath id="clip0_257_3169">
<rect x="4" y="140" width="786" height="929" rx="10" fill="white"/>
</clipPath>
<clipPath id="clip1_257_3169">
<rect x="4" width="786" height="125" rx="10" fill="white"/>
</clipPath>
</defs>
</svg>
